<?xml version="1.0" standalone="no"?>
<!DOCTYPE svg PUBLIC "-//W3C//DTD SVG 20010904//EN"
 "http://www.w3.org/TR/2001/REC-SVG-20010904/DTD/svg10.dtd">
<svg version="1.0" xmlns="http://www.w3.org/2000/svg"
 width="480.000000pt" height="640.000000pt" viewBox="0 0 480.000000 640.000000"
 preserveAspectRatio="xMidYMid meet">

<g transform="translate(0.000000,640.000000) scale(0.100000,-0.100000)"
fill="#000000" stroke="none">
<path d="M0 4655 c0 -1565 2 -1745 15 -1745 9 0 33 9 53 19 43 22 181 35 203
19 12 -8 12 -10 0 -15 -8 -3 -27 -20 -43 -36 -26 -29 -31 -31 -97 -29 -39 0
-73 -3 -76 -9 -4 -5 -17 -6 -31 -3 -22 6 -24 3 -24 -25 0 -38 5 -38 54 -5 40
28 40 28 67 -18 7 -14 6 -18 -6 -18 -8 0 -15 5 -15 10 0 17 -36 11 -60 -10
-13 -11 -27 -20 -32 -20 -4 0 -8 -19 -8 -41 0 -36 2 -40 15 -29 8 7 13 15 11
19 -3 4 7 6 22 5 26 -1 45 -24 20 -24 -8 0 -26 -6 -41 -12 l-27 -13 0 -365 c0
-276 3 -369 12 -378 10 -10 10 -17 0 -32 -15 -25 -17 -290 -2 -290 6 0 10 17
10 38 0 27 3 33 10 22 5 -8 10 -27 10 -42 0 -21 -5 -28 -20 -28 -19 0 -20 -7
-20 -226 0 -203 2 -226 16 -220 10 4 18 -1 21 -14 3 -10 13 -22 22 -25 21 -7
81 -62 81 -74 0 -5 -9 -13 -20 -16 -11 -3 -20 -11 -20 -16 0 -5 -9 -9 -20 -9
-11 0 -20 5 -20 10 0 6 4 10 9 10 5 0 11 9 14 20 5 20 -24 46 -37 33 -6 -6
-10 12 -7 35 1 6 -7 12 -19 12 -22 0 -29 -34 -7 -44 9 -5 9 -7 -1 -12 -9 -4
-12 -121 -12 -535 l0 -529 1540 0 1540 0 1 23 0 22 11 -22 c9 -19 19 -23 55
-23 30 0 43 4 43 14 0 9 7 12 20 9 11 -3 20 -9 20 -14 0 -5 86 -9 191 -9 173
0 191 2 195 18 6 20 51 44 60 31 3 -5 -2 -9 -10 -9 -9 0 -16 -5 -16 -11 0 -5
-4 -7 -10 -4 -5 3 -10 -1 -10 -9 0 -19 36 -22 43 -3 4 9 6 9 6 0 1 -8 14 -13
31 -13 22 0 30 5 30 18 0 10 14 26 31 36 27 16 29 20 15 28 -9 5 -21 6 -26 3
-5 -3 -7 0 -4 9 8 20 32 28 54 16 12 -7 28 -7 44 0 21 7 26 6 26 -5 0 -8 -5
-15 -11 -15 -17 0 -48 -43 -49 -67 0 -18 6 -23 25 -23 14 0 25 5 25 10 0 6 9
10 20 10 11 0 20 -4 20 -10 0 -15 345 -13 373 1 16 9 22 9 25 0 2 -6 15 -11
28 -11 19 0 24 5 24 24 0 13 -7 26 -15 30 -19 7 -19 36 0 36 8 0 15 -7 15 -15
0 -8 4 -15 10 -15 5 0 7 -13 4 -30 l-6 -30 216 0 216 0 0 65 c0 36 -6 74 -13
85 -10 17 -9 22 1 29 9 6 12 44 10 157 -2 106 -6 140 -12 117 -13 -49 -26 -40
-26 18 0 46 2 51 20 46 19 -5 20 0 20 115 0 77 -4 117 -10 113 -6 -3 -10 -1
-10 4 0 6 5 11 10 11 6 0 10 25 9 58 0 41 -3 51 -9 37 -5 -11 -9 -32 -9 -47
-1 -33 -15 -43 -34 -24 -11 11 -17 12 -26 3 -17 -17 -13 -24 11 -23 32 1 34
-28 3 -42 -21 -10 -27 -9 -31 3 -8 19 -24 19 -38 0 -6 -8 -16 -11 -21 -7 -16
10 -61 77 -47 68 7 -4 12 -1 12 8 0 9 5 16 10 16 6 0 5 8 -2 19 -10 17 -9 23
6 40 12 13 14 21 7 21 -23 0 -61 -56 -61 -89 0 -10 -7 -21 -15 -25 -8 -3 -15
-14 -15 -26 0 -11 -9 -25 -19 -32 -10 -6 -17 -17 -14 -23 2 -7 -3 -15 -11 -18
-23 -9 -20 7 9 49 14 20 25 45 25 55 0 10 4 21 10 24 6 3 10 17 10 30 0 13 3
25 8 27 10 4 52 87 52 104 0 8 5 14 10 14 6 0 10 7 10 15 0 8 5 26 12 40 9 20
18 25 42 23 17 -1 50 -1 74 0 l42 2 0 54 c0 36 -4 56 -13 59 -15 6 -11 67 4
67 5 0 9 383 9 900 l0 900 -30 0 c-16 0 -30 5 -30 11 0 7 12 10 30 7 l30 -5 0
1674 0 1673 -2400 0 -2400 0 0 -1745z m668 1538 l-3 -37 -14 27 c-12 22 -12
33 0 73 l14 47 3 -36 c2 -20 2 -54 0 -74z m-5 -245 c-9 -17 -19 -6 -17 20 2
38 5 41 13 12 5 -14 6 -28 4 -32z m1572 -196 c6 -4 17 -27 24 -52 7 -25 17
-59 22 -76 11 -37 12 -124 1 -124 -16 0 -32 25 -32 51 0 15 -7 29 -15 32 -11
5 -13 -1 -9 -26 3 -18 9 -41 13 -52 16 -40 31 -118 25 -124 -4 -3 -9 0 -11 7
-3 6 -11 12 -19 12 -20 0 -42 39 -50 88 -4 23 -10 42 -14 42 -10 0 -22 104
-14 124 7 18 34 22 34 5 0 -5 5 -7 10 -4 7 4 3 17 -9 33 -30 43 4 93 44 64z
m-97 -224 c-2 -6 -25 -19 -50 -27 -26 -9 -56 -24 -67 -35 -20 -18 -21 -18 -27
-1 -10 25 39 63 86 68 19 2 41 4 48 5 8 1 12 -3 10 -10z m-1491 -75 c-3 -10
-5 -2 -5 17 0 19 2 27 5 18 2 -10 2 -26 0 -35z m1780 25 c6 -7 11 -60 12 -118
1 -57 7 -110 13 -117 6 -8 8 -16 5 -20 -9 -8 -37 16 -37 32 0 8 -5 15 -11 17
-6 2 -12 16 -12 31 -1 15 -5 27 -9 27 -12 0 -10 48 2 55 6 3 10 28 10 56 0 49
9 60 27 37z m-1780 -270 c-2 -18 -4 -6 -4 27 0 33 2 48 4 33 2 -15 2 -42 0
-60z m1603 15 c0 -16 -5 -35 -10 -43 -7 -11 -10 -4 -10 28 0 23 5 42 10 42 6
0 10 -12 10 -27z m-33 -145 c-3 -8 -6 -5 -6 6 -1 11 2 17 5 13 3 -3 4 -12 1
-19z m-1568 -85 c0 -53 -3 -70 -8 -53 -5 14 -7 36 -5 50 1 14 3 37 3 53 1 15
3 27 6 27 3 0 5 -35 4 -77z m1567 -80 c7 -10 14 -32 14 -48 0 -17 5 -36 12
-43 9 -9 9 -15 1 -23 -21 -21 -53 29 -53 83 0 52 5 58 26 31z m74 -28 c0 -28
25 -44 43 -26 6 6 19 11 29 11 11 0 18 7 18 20 0 11 7 20 14 20 22 0 0 -57
-25 -63 -24 -6 -25 -35 -1 -53 16 -13 16 -13 -1 -14 -10 0 -25 7 -33 15 -9 8
-26 15 -39 15 -18 0 -24 6 -27 33 -2 17 -2 40 0 50 5 26 22 20 22 -8z m419
-12 c38 -39 -2 -112 -62 -113 -56 0 -101 77 -66 113 38 37 90 37 128 0z
m-1137 -48 c36 -36 68 -65 71 -65 10 0 93 -84 111 -112 32 -50 -8 -33 -72 30
-79 75 -152 128 -152 108 0 -8 -18 -32 -40 -54 -22 -21 -40 -46 -40 -54 0 -8
-3 -18 -7 -21 -10 -10 -63 44 -62 62 0 9 27 39 59 66 47 41 56 53 48 68 -9 18
-3 37 11 37 4 0 37 -29 73 -65z m896 53 c9 -9 15 -9 24 0 7 7 27 12 46 12 30
0 33 -2 22 -15 -8 -10 -11 -33 -8 -65 4 -37 1 -53 -9 -59 -22 -12 -115 22
-123 45 -8 22 -1 54 11 54 5 0 9 9 9 20 0 23 10 26 28 8z m-1819 -560 c-1
-266 -5 -465 -9 -443 -4 22 -6 229 -4 460 2 470 2 465 9 465 3 0 4 -217 4
-482z m1621 452 c0 -16 -4 -30 -10 -30 -5 0 -10 14 -10 30 0 17 5 30 10 30 6
0 10 -13 10 -30z m-72 -19 c-13 -17 -31 -30 -40 -30 -22 -1 -23 -8 -2 -28 13
-14 17 -14 25 -2 5 8 9 19 9 24 0 6 9 -3 20 -20 l19 -29 -27 -12 c-22 -9 -29
-8 -36 5 -15 27 -30 31 -53 16 -33 -22 -47 -18 -61 15 -19 42 -12 64 21 68 15
2 27 8 27 13 0 5 27 9 61 9 l61 0 -24 -29z m602 7 c0 -16 -3 -19 -11 -11 -6 6
-8 16 -5 22 11 17 16 13 16 -11z m-400 -28 c0 -5 -4 -10 -10 -10 -5 0 -10 5
-10 10 0 6 5 10 10 10 6 0 10 -4 10 -10z m-70 -86 c0 -2 -7 -4 -15 -4 -8 0
-15 4 -15 10 0 5 7 7 15 4 8 -4 15 -8 15 -10z m40 -36 c0 -5 -9 -4 -20 2 -11
6 -18 15 -14 21 6 11 34 -7 34 -23z m183 -18 c4 -17 0 -20 -24 -20 -17 0 -29
5 -29 13 0 32 45 38 53 7z m-1493 -89 c0 -11 -9 -22 -19 -26 -19 -6 -27 -31
-36 -115 -8 -70 -14 -90 -31 -90 -19 0 -29 26 -16 43 5 6 13 35 16 62 9 62 41
132 64 138 9 3 18 5 20 6 1 0 2 -8 2 -18z m123 -41 c-6 -23 -14 -25 -31 -8
-18 18 -14 28 12 28 19 0 23 -4 19 -20z m1087 -1 c0 -5 -4 -9 -10 -9 -5 0 -10
7 -10 16 0 8 5 12 10 9 6 -3 10 -10 10 -16z m-276 -4 c8 -9 20 -14 27 -13 6 2
14 -3 16 -11 4 -10 -2 -12 -28 -8 -81 14 -99 20 -99 33 0 19 64 18 84 -1z
m-120 -47 c-7 -38 -75 -178 -86 -178 -15 0 -8 49 11 83 10 18 22 49 26 68 7
31 29 58 47 59 4 0 5 -15 2 -32z m1159 20 c15 -7 27 -16 27 -20 0 -5 -63 -8
-140 -8 -77 0 -140 2 -140 5 0 29 200 47 253 23z m-1803 -150 c-1 -21 -26 -48
-46 -49 -16 0 -16 -2 4 -9 20 -8 22 -16 22 -77 0 -37 3 -78 6 -90 5 -18 3 -21
-15 -16 -31 8 -61 56 -61 96 0 20 -4 39 -10 42 -15 9 -12 55 4 55 8 0 28 14
46 30 34 32 50 38 50 18z m-262 -115 c-1 -65 -2 -70 -7 -33 -6 44 -3 110 5
110 2 0 3 -35 2 -77z m1565 54 c21 -10 43 -29 49 -42 6 -14 15 -25 20 -25 4 0
8 -20 8 -44 0 -62 -32 -84 -126 -88 -38 -2 -68 -7 -67 -13 4 -14 123 -15 158
-1 20 8 42 9 65 4 19 -5 99 -10 177 -11 78 -1 145 -5 149 -9 4 -5 -2 -8 -14
-8 -12 0 -30 -10 -42 -22 l-20 -22 0 22 0 22 -255 0 c-178 0 -255 3 -255 11 0
7 -23 9 -75 4 -46 -4 -75 -2 -75 4 0 27 56 115 100 158 30 29 145 86 160 79 3
-1 22 -10 43 -19z m1815 -129 c32 -32 -4 -101 -39 -74 -34 25 -27 86 9 86 10
0 23 -5 30 -12z m-3074 -114 c20 -8 11 -24 -15 -24 -19 0 -25 11 -12 23 8 8 8
8 27 1z m1088 -24 c10 0 18 -4 18 -10 0 -5 -16 -10 -35 -10 -22 0 -35 5 -35
13 0 20 12 29 24 17 5 -5 18 -10 28 -10z m-1364 -17 c6 -15 12 -38 12 -52 0
-32 -9 -22 -12 12 -1 15 -5 27 -9 27 -4 0 -9 9 -12 20 -7 29 6 24 21 -7z
m1578 -23 c30 0 54 -4 54 -9 0 -11 -80 -19 -86 -9 -3 5 -9 6 -14 3 -13 -8 -33
23 -24 37 7 10 9 9 12 -4 3 -15 14 -18 58 -18z m314 8 c-1 -15 -24 -48 -34
-48 -9 0 -36 26 -36 34 0 4 11 4 25 0 19 -5 25 -2 25 10 0 9 5 16 10 16 6 0
10 -6 10 -12z m-434 -25 c-10 -10 -19 5 -10 18 6 11 8 11 12 0 2 -7 1 -15 -2
-18z m-206 7 c0 -5 11 -10 24 -10 32 0 65 -19 102 -57 21 -22 41 -33 59 -33
l28 0 -20 -22 c-11 -13 -32 -44 -46 -70 -14 -25 -36 -58 -49 -73 -15 -17 -22
-36 -20 -53 3 -25 2 -24 -26 13 -17 23 -36 60 -44 83 -7 23 -16 42 -20 42 -5
0 -8 15 -8 33 0 17 -5 50 -11 71 -8 30 -8 45 2 63 13 23 29 31 29 13z m530 0
c0 -5 -9 -10 -20 -10 -13 0 -20 -7 -20 -20 0 -15 -7 -20 -29 -20 -17 0 -33 -4
-36 -10 -3 -5 -33 -10 -65 -10 -32 0 -62 5 -65 10 -3 6 -19 10 -36 10 -16 0
-29 -4 -29 -10 0 -5 -11 -10 -25 -10 -14 0 -25 4 -25 10 0 5 6 7 13 5 17 -7
34 6 38 29 5 25 29 33 29 9 0 -28 38 -40 100 -30 55 8 84 23 75 37 -6 9 22 16
68 19 15 0 27 -3 27 -9z m-1150 -20 c0 -5 -3 -10 -7 -10 -11 0 -33 -50 -33
-72 0 -10 -4 -18 -10 -18 -5 0 -10 -9 -10 -20 0 -11 -4 -20 -10 -20 -5 0 -10
-7 -10 -15 0 -9 -8 -24 -18 -35 -10 -10 -26 -43 -36 -72 -25 -74 -41 -95 -61
-78 -11 9 -13 16 -5 24 5 5 10 22 10 36 0 28 21 80 32 80 3 0 19 21 34 48 15
26 30 49 34 52 3 3 12 24 18 48 10 31 18 42 32 42 11 0 20 5 20 10 0 6 5 10
10 10 6 0 10 -4 10 -10z m-544 -60 c17 -1 18 -1 2 -11 -24 -14 -80 15 -71 37
5 13 9 12 27 -5 12 -12 31 -21 42 -21z m163 -5 c-8 -7 -119 -9 -126 -2 -3 4
24 7 62 7 38 0 66 -2 64 -5z m-602 -177 c-3 -7 -5 -2 -5 12 0 14 2 19 5 13 2
-7 2 -19 0 -25z m760 -125 c7 -6 13 -23 13 -37 0 -19 -5 -26 -20 -26 -19 0
-21 4 -24 38 -1 7 -7 16 -14 21 -7 4 -10 15 -6 25 7 17 15 14 51 -21z m638
-43 c7 0 15 -9 18 -20 8 -30 -16 -24 -30 7 -7 15 -12 32 -12 37 1 6 3 3 6 -6
2 -10 10 -18 18 -18z m-690 -34 c20 -20 22 -29 15 -52 -4 -16 -9 -23 -9 -16
-1 6 -8 12 -17 12 -11 0 -14 6 -9 20 3 11 2 20 -3 20 -5 0 -12 9 -15 20 -7 27
9 25 38 -4z m515 -26 c0 -5 -4 -10 -10 -10 -5 0 -10 5 -10 10 0 6 5 10 10 10
6 0 10 -4 10 -10z m-545 -43 c19 -20 14 -67 -7 -67 -10 0 -15 5 -12 13 2 7 -4
22 -15 34 -29 31 4 50 34 20z m505 -17 c0 -5 -11 -10 -25 -10 -14 0 -25 -4
-25 -10 0 -5 -7 -10 -15 -10 -8 0 -35 -11 -60 -25 -25 -14 -45 -22 -45 -17 0
12 21 29 40 34 8 2 17 6 20 9 23 27 110 50 110 29z m2185 -20 c4 -6 -6 -10
-22 -10 -22 0 -25 2 -13 10 19 12 27 12 35 0z m-78 -6 c-3 -3 -12 -4 -19 -1
-8 3 -5 6 6 6 11 1 17 -2 13 -5z m-2649 -41 c16 -23 17 -30 6 -40 -18 -18 -24
-16 -24 7 0 11 -4 20 -10 20 -5 0 -10 9 -10 20 0 28 15 25 38 -7z m2769 21
c-3 -3 -12 -4 -19 -1 -8 3 -5 6 6 6 11 1 17 -2 13 -5z m-57 -34 c25 0 29 -5
35 -40 10 -60 0 -82 -39 -79 -17 2 -36 0 -43 -4 -6 -4 -18 -4 -27 -1 -12 5
-16 21 -16 71 l0 66 31 -7 c17 -3 44 -6 59 -6z m-1280 -30 c0 -5 -4 -10 -10
-10 -5 0 -10 5 -10 10 0 6 5 10 10 10 6 0 10 -4 10 -10z m-1466 -29 c14 -15
14 -20 4 -25 -10 -5 -10 -7 0 -12 18 -9 14 -24 -7 -24 -13 0 -18 7 -18 27 0
15 -6 29 -12 31 -6 2 -11 8 -11 13 0 16 26 10 44 -10z m1510 10 c3 -5 -5 -11
-18 -13 -17 -4 -23 -1 -19 9 6 15 29 18 37 4z m1556 -31 c21 -42 28 -68 28
-97 -1 -29 -6 -34 -37 -43 -20 -5 -66 -10 -103 -10 -61 0 -68 -2 -68 -20 0
-20 33 -29 44 -11 6 9 66 7 107 -4 16 -4 30 -2 33 4 4 6 11 11 17 11 16 0 10
-36 -11 -58 -13 -14 -20 -35 -20 -61 0 -38 -13 -61 -24 -43 -3 5 -18 8 -33 6
-16 -3 -52 -2 -81 2 l-53 6 3 150 3 151 30 18 c38 23 154 22 165 -1z m-3104
-47 c15 -21 18 -53 5 -53 -9 0 -51 52 -51 64 0 13 34 5 46 -11z m2264 3 c0 -7
-11 -16 -25 -18 -30 -6 -39 1 -24 19 15 17 49 17 49 -1z m-440 -22 c0 -8 -10
-14 -25 -14 -29 0 -30 3 -9 24 17 18 34 13 34 -10z m1636 4 c-3 -7 -9 -21 -12
-30 -4 -10 -15 -18 -25 -18 -23 0 -24 -13 -4 -34 8 -8 15 -22 15 -30 0 -9 5
-16 10 -16 6 0 10 -5 10 -11 0 -8 -5 -7 -15 1 -13 11 -20 9 -40 -10 -22 -20
-25 -32 -25 -87 0 -35 -4 -63 -10 -63 -5 0 -10 -11 -10 -24 0 -37 22 -126 32
-126 4 0 8 -4 8 -10 0 -5 -13 -10 -30 -10 -16 0 -30 5 -30 10 0 6 -6 10 -13
10 -6 0 -36 25 -65 55 l-52 55 0 101 c0 139 11 158 130 216 67 33 137 44 126
21z m-746 -26 c0 -9 -10 -22 -22 -27 -13 -6 -28 -21 -35 -35 -13 -26 -36 -28
-59 -5 -16 16 -19 65 -4 65 6 0 10 -9 10 -20 0 -20 15 -28 22 -11 3 10 69 51
81 51 4 0 7 -8 7 -18z m111 -19 c40 -37 40 -38 36 -99 -5 -68 -18 -89 -76
-117 -38 -19 -81 -22 -81 -7 0 6 -6 10 -14 10 -7 0 -19 7 -26 15 -10 12 -10
18 0 30 9 10 9 15 1 15 -6 0 -11 -4 -11 -10 0 -18 -22 -10 -27 10 -3 11 -14
20 -24 20 -14 0 -19 7 -19 25 0 19 5 25 21 25 11 0 17 -4 14 -10 -3 -5 1 -10
9 -10 8 0 23 13 32 29 10 16 26 32 36 34 10 3 18 12 18 21 0 10 9 16 25 16 29
0 32 8 8 26 -16 12 -15 13 10 14 19 0 41 -12 68 -37z m-2856 -8 c14 -13 25
-27 25 -30 0 -14 -35 -3 -51 17 -37 42 -14 54 26 13z m1785 16 c0 -5 -9 -11
-20 -14 -13 -3 -20 0 -20 9 0 8 9 14 20 14 11 0 20 -4 20 -9z m-170 -28 c0
-37 -111 -56 -118 -20 -3 13 3 17 26 17 17 0 32 -6 34 -12 3 -8 9 -4 17 10 14
26 41 29 41 5z m170 -3 c0 -6 29 -7 75 -4 50 3 75 2 75 -5 0 -6 -7 -11 -15
-11 -8 0 -15 -4 -15 -10 0 -6 -32 -10 -76 -10 -65 0 -75 2 -70 16 3 9 6 20 6
25 0 5 5 9 10 9 6 0 10 -4 10 -10z m1720 -5 c0 -8 -7 -15 -15 -15 -16 0 -20
12 -8 23 11 12 23 8 23 -8z m-4160 -5 c0 -5 -7 -10 -15 -10 -19 0 -19 -29 -1
-55 18 -27 29 -75 17 -75 -14 0 -41 41 -41 62 0 9 -8 22 -17 27 -17 9 -16 12
7 35 26 26 50 33 50 16z m618 -18 c24 -24 18 -88 -9 -103 -11 -5 -19 -16 -19
-24 0 -8 -4 -15 -10 -15 -5 0 -7 -13 -4 -28 4 -19 1 -32 -10 -41 -9 -8 -16
-20 -16 -27 0 -8 -4 -14 -10 -14 -5 0 -10 -15 -10 -34 0 -19 -4 -38 -10 -41
-5 -3 -10 -15 -10 -25 0 -10 -3 -20 -7 -22 -5 -1 -25 -37 -45 -78 -20 -42 -46
-84 -57 -95 -12 -10 -21 -28 -21 -41 0 -13 -4 -26 -10 -29 -5 -3 -10 -14 -10
-24 0 -9 -9 -27 -21 -39 -11 -13 -27 -37 -35 -55 -8 -17 -28 -54 -44 -82 -15
-27 -29 -62 -29 -76 -1 -15 -24 -71 -53 -125 -28 -55 -80 -155 -115 -224 -58
-111 -113 -183 -129 -167 -3 2 11 36 29 73 19 38 41 84 48 102 8 17 17 32 21
32 5 0 8 9 8 20 0 11 5 20 10 20 6 0 10 9 10 20 0 11 5 20 10 20 6 0 10 9 10
19 0 11 5 23 10 26 6 3 10 15 10 25 0 10 4 20 8 22 4 2 26 39 47 83 22 44 43
82 47 83 5 2 8 12 8 23 0 10 5 19 10 19 6 0 10 9 10 20 0 11 5 20 10 20 6 0
10 6 10 14 0 8 14 39 30 69 17 30 30 62 30 71 0 9 4 16 9 16 8 0 89 158 111
215 4 11 15 37 24 58 9 21 16 43 16 50 1 7 9 30 20 52 11 22 19 48 20 58 0 9
5 17 10 17 6 0 10 14 10 30 0 17 5 30 10 30 6 0 10 9 10 20 0 11 4 20 9 20 5
0 13 15 16 33 12 53 16 56 43 29z m3578 -6 c22 -22 17 -38 -8 -30 -30 9 -30 8
-22 28 8 20 11 20 30 2z m-1241 -21 c6 -2 -28 -4 -75 -4 -47 0 -79 3 -72 7 11
8 124 5 147 -3z m-391 -14 c7 -11 -68 -23 -99 -15 -14 3 -25 10 -25 15 0 12
117 12 124 0z m-672 -34 c-12 -6 -22 -14 -22 -19 0 -4 -6 -8 -12 -8 -35 -1
-111 -96 -165 -210 -36 -73 -37 -78 -38 -195 0 -104 3 -128 24 -180 13 -33 28
-64 33 -69 4 -6 8 -16 8 -23 0 -7 34 -82 75 -166 41 -85 75 -159 75 -166 0 -6
5 -11 10 -11 6 0 10 -6 10 -14 0 -8 14 -40 30 -71 17 -31 30 -61 30 -66 0 -5
15 -32 33 -61 18 -29 39 -66 47 -83 8 -16 18 -32 21 -35 3 -3 20 -27 38 -55
l33 -50 -51 52 c-28 29 -51 56 -51 60 0 5 -9 14 -19 20 -22 14 -91 126 -91
148 0 7 -4 15 -8 17 -8 3 -68 123 -191 383 -39 83 -78 163 -86 178 -8 16 -15
37 -15 47 0 10 -4 22 -10 25 -14 9 -13 200 1 244 18 54 31 83 56 117 13 17 23
34 23 38 0 10 76 84 118 116 51 38 94 60 105 53 6 -4 1 -11 -11 -16z m662 -7
c17 0 18 -2 6 -10 -19 -12 -97 -13 -104 -1 -9 13 15 21 48 16 16 -3 38 -5 50
-5z m-4 -50 c0 -5 -22 -10 -50 -10 -27 0 -50 5 -50 10 0 6 23 10 50 10 28 0
50 -4 50 -10z m739 -32 c0 -13 -3 -17 -6 -10 -2 6 -11 12 -19 12 -9 0 -12 5
-9 10 12 19 35 10 34 -12z m-739 -8 c0 -5 -9 -10 -19 -10 -11 0 -22 -6 -24
-12 -4 -10 -8 -9 -16 2 -17 24 -13 30 24 30 19 0 35 -4 35 -10z m-10 -60 c12
-8 11 -10 -7 -10 -13 0 -23 5 -23 10 0 13 11 13 30 0z m920 -15 c0 -20 -5 -25
-23 -25 -13 0 -32 9 -41 19 -17 18 -17 19 1 24 47 12 63 8 63 -18z m-3765 0
c37 -8 19 -20 -45 -29 -36 -5 -40 -4 -21 4 20 9 21 12 10 27 -12 14 -11 15 6
10 11 -3 33 -8 50 -12z m3835 -11 c0 -14 -31 -20 -43 -7 -8 8 25 33 35 27 5
-3 8 -12 8 -20z m-3090 -24 c0 -5 -4 -10 -10 -10 -5 0 -10 5 -10 10 0 6 5 10
10 10 6 0 10 -4 10 -10z m-866 -6 c23 -9 20 -24 -4 -24 -11 0 -20 7 -20 15 0
17 2 18 24 9z m2526 -74 c0 -5 -4 -10 -10 -10 -5 0 -10 5 -10 10 0 6 5 10 10
10 6 0 10 -4 10 -10z m397 -107 c-3 -10 -5 -2 -5 17 0 19 2 27 5 18 2 -10 2
-26 0 -35z m-2271 -90 c-10 -10 -19 5 -10 18 6 11 8 11 12 0 2 -7 1 -15 -2
-18z m-179 -20 c-21 -22 -32 -11 -15 16 8 13 16 17 22 11 7 -7 4 -16 -7 -27z
m243 7 c0 -13 -5 -18 -15 -14 -8 4 -15 12 -15 20 0 8 7 14 15 14 8 0 15 -9 15
-20z m-374 -14 c14 -15 19 -36 8 -36 -10 0 -34 28 -34 39 0 15 9 14 26 -3z
m181 -18 c-3 -7 -5 -2 -5 12 0 14 2 19 5 13 2 -7 2 -19 0 -25z m3251 9 c2 -12
-3 -17 -17 -17 -15 0 -21 6 -21 21 0 25 33 22 38 -4z m-2909 -49 c-12 -13 -19
-18 -16 -12 4 6 12 24 18 40 9 22 13 25 16 12 3 -10 -6 -28 -18 -40z m2321 42
c0 -5 -2 -10 -4 -10 -3 0 -8 5 -11 10 -3 6 -1 10 4 10 6 0 11 -4 11 -10z m80
0 c0 -5 -7 -10 -16 -10 -8 0 -12 5 -9 10 3 6 10 10 16 10 5 0 9 -4 9 -10z
m810 6 c0 -2 3 -11 6 -20 4 -12 0 -16 -15 -16 -12 0 -21 2 -21 4 0 2 -3 11 -6
20 -4 12 0 16 15 16 12 0 21 -2 21 -4z m-970 -23 c-1 -24 -16 -29 -34 -12 -19
19 -19 19 7 19 15 0 27 -3 27 -7z m341 -46 c-13 -13 -31 0 -24 19 4 11 8 12
20 3 9 -8 10 -16 4 -22z m-281 -76 c0 -5 -7 -12 -16 -15 -22 -9 -24 -8 -24 9
0 8 9 15 20 15 11 0 20 -4 20 -9z m-530 -20 c0 -6 -4 -13 -10 -16 -5 -3 -10 1
-10 9 0 9 5 16 10 16 6 0 10 -4 10 -9z m320 -21 c0 -10 -9 -20 -20 -23 -16 -4
-20 0 -20 23 0 23 4 27 20 23 11 -3 20 -13 20 -23z m1340 -20 c0 -11 -4 -20
-10 -20 -5 0 -10 9 -10 20 0 11 5 20 10 20 6 0 10 -9 10 -20z m-3996 -9 c3 -5
-1 -11 -9 -14 -9 -4 -12 -1 -8 9 6 16 10 17 17 5z m486 -5 c0 -3 -4 -8 -10
-11 -5 -3 -10 -1 -10 4 0 6 5 11 10 11 6 0 10 -2 10 -4z m175 -32 c16 -24 16
-26 -1 -39 -16 -11 -20 -10 -32 6 -10 15 -10 22 0 39 7 11 13 20 14 20 1 0 9
-12 19 -26z m105 -2 c0 -10 -41 -35 -47 -28 -9 8 17 36 33 36 8 0 14 -3 14 -8z
m-335 -16 c7 3 16 1 20 -5 4 -7 -4 -11 -19 -11 -18 0 -26 5 -25 18 0 9 3 12 5
5 3 -7 11 -10 19 -7z m2135 -12 c0 -11 -5 -14 -16 -10 -9 3 -18 6 -20 6 -3 0
-2 5 1 10 10 16 35 12 35 -6z m-60 -11 c0 -5 -9 -19 -20 -33 -16 -21 -20 -22
-20 -7 0 10 6 24 13 32 13 16 27 19 27 8z m-2275 -39 c19 -14 19 -14 0 -15
-11 -1 -35 -1 -53 0 -38 3 -142 -44 -142 -63 0 -17 -50 -67 -60 -61 -4 2 -5
15 -3 29 3 16 -2 28 -15 38 -18 12 -18 16 -6 33 8 10 14 14 14 8 0 -17 41 -23
56 -8 8 7 14 18 14 23 0 6 22 13 50 17 27 4 52 10 55 14 6 11 67 1 90 -15z
m2425 -3 c0 -5 -12 -17 -27 -26 -44 -28 -103 -97 -103 -120 0 -7 -4 -16 -9
-19 -4 -3 -11 -22 -14 -43 -4 -21 -8 -47 -11 -58 -2 -11 -5 -23 -5 -27 -2 -15
-29 -8 -35 8 -12 31 6 119 32 159 31 48 83 98 126 119 36 18 46 19 46 7z
m-2070 -69 c0 -11 -7 -22 -15 -26 -8 -3 -15 -15 -15 -27 0 -18 -2 -19 -15 -9
-8 7 -15 20 -15 30 0 10 7 20 15 24 8 3 15 17 15 31 0 24 2 25 15 11 8 -8 15
-23 15 -34z m2175 -1 c10 -17 -11 -21 -31 -6 -18 14 -18 14 3 15 12 0 24 -4
28 -9z m88 -5 c16 -12 24 -46 11 -46 -11 0 -84 45 -84 53 0 12 54 7 73 -7z
m-3173 -16 c0 -5 -5 -10 -11 -10 -5 0 -7 5 -4 10 3 6 8 10 11 10 2 0 4 -4 4
-10z m520 -20 c-6 -11 -25 -26 -43 -34 -18 -7 -47 -30 -65 -51 -35 -41 -48
-41 -38 0 8 31 41 62 93 86 53 24 66 24 53 -1z m3880 -5 c0 -8 -4 -15 -9 -15
-13 0 -22 16 -14 24 11 11 23 6 23 -9z m-1320 -14 c0 -6 -4 -13 -10 -16 -5 -3
-10 -17 -10 -30 0 -13 5 -27 10 -30 6 -3 10 -15 10 -26 0 -14 -7 -19 -27 -19
-44 0 -93 22 -93 42 0 10 4 18 8 18 5 0 14 11 21 24 19 35 91 64 91 37z
m-2800 -16 c0 -8 -4 -15 -10 -15 -5 0 -7 7 -4 15 4 8 8 15 10 15 2 0 4 -7 4
-15z m2870 7 c0 -4 14 -13 30 -19 37 -14 39 -40 5 -49 -33 -8 -42 1 -21 21 22
22 21 25 -13 25 -20 0 -31 -6 -34 -17 -3 -10 -5 -3 -4 15 1 24 6 32 19 32 10
0 18 -4 18 -8z m-3029 -29 c-8 -15 -10 -15 -11 -2 0 17 10 32 18 25 2 -3 -1
-13 -7 -23z m152 -18 c-3 -9 -8 -14 -10 -11 -3 3 -2 9 2 15 9 16 15 13 8 -4z
m937 0 c0 -8 -4 -15 -9 -15 -5 0 -11 7 -15 15 -3 9 0 15 9 15 8 0 15 -7 15
-15z m-975 -35 c3 -5 1 -10 -4 -10 -6 0 -11 5 -11 10 0 6 2 10 4 10 3 0 8 -4
11 -10z m609 -12 c8 -33 7 -48 -3 -48 -19 0 -39 30 -34 50 7 27 29 25 37 -2z
m1885 -12 c-12 -13 -34 8 -25 23 5 8 11 7 21 -2 8 -7 10 -16 4 -21z m521 24
c0 -5 -7 -10 -15 -10 -8 0 -15 5 -15 10 0 6 7 10 15 10 8 0 15 -4 15 -10z
m-3165 -20 c3 -5 1 -10 -4 -10 -6 0 -11 5 -11 10 0 6 2 10 4 10 3 0 8 -4 11
-10z m-25 -20 c0 -5 -5 -10 -11 -10 -5 0 -7 5 -4 10 3 6 8 10 11 10 2 0 4 -4
4 -10z m1380 0 c0 -5 -7 -10 -15 -10 -8 0 -15 5 -15 10 0 6 7 10 15 10 8 0 15
-4 15 -10z m1507 -32 c8 -21 19 -38 24 -38 5 0 9 -6 9 -14 0 -13 56 -46 79
-46 6 0 11 -4 11 -9 0 -5 3 -16 6 -25 5 -12 0 -16 -20 -16 -69 0 -156 91 -156
163 0 38 30 29 47 -15z m263 15 c0 -15 17 -18 22 -4 2 5 12 11 23 13 26 4 33
-33 11 -55 -9 -9 -16 -20 -16 -25 0 -14 -68 -72 -85 -72 -8 0 -15 -4 -15 -10
0 -5 -9 -10 -21 -10 -27 0 -23 38 6 54 11 6 30 21 41 33 12 12 25 19 28 16 3
-4 6 1 6 11 0 12 -6 16 -17 12 -63 -18 -70 -18 -77 6 -10 40 -7 43 44 43 34 0
50 -4 50 -12z m-2300 -8 c0 -8 5 -15 10 -15 20 0 9 -52 -17 -78 l-26 -26 6 33
c4 18 7 49 7 67 0 19 5 34 10 34 6 0 10 -7 10 -15z m468 -7 c-3 -7 -13 -15
-23 -16 -15 -4 -16 -2 -4 12 17 19 32 21 27 4z m-978 -18 c0 -5 -4 -10 -10
-10 -5 0 -9 -3 -9 -7 3 -19 -2 -33 -11 -33 -11 0 -14 43 -3 53 10 11 33 8 33
-3z m927 -16 c-3 -3 -12 -4 -19 -1 -8 3 -5 6 6 6 11 1 17 -2 13 -5z m3323 -70
c0 -8 -25 -3 -55 10 l-30 13 30 15 c28 15 30 15 42 -9 7 -14 13 -27 13 -29z
m-4670 16 c0 -11 -4 -20 -10 -20 -5 0 -10 9 -10 20 0 11 5 20 10 20 6 0 10 -9
10 -20z m1290 10 c0 -5 -4 -10 -10 -10 -5 0 -10 5 -10 10 0 6 5 10 10 10 6 0
10 -4 10 -10z m3057 4 c-3 -3 -12 -4 -19 -1 -8 3 -5 6 6 6 11 1 17 -2 13 -5z
m-2867 -44 c0 -5 -11 -10 -25 -10 -14 0 -25 5 -25 10 0 6 11 10 25 10 14 0 25
-4 25 -10z m2130 0 c0 -5 -9 -14 -20 -20 -11 -6 -20 -15 -20 -20 0 -6 9 -10
20 -10 11 0 20 7 20 15 0 17 9 19 28 7 19 -12 4 -39 -25 -47 -54 -13 -80 19
-51 65 13 20 48 28 48 10z m-3487 -30 c3 -11 1 -23 -4 -26 -5 -3 -9 6 -9 20 0
31 6 34 13 6z m987 -55 c0 -30 -3 -55 -7 -55 -5 0 -17 -8 -28 -16 -20 -15 -20
-16 10 -40 22 -17 25 -24 13 -24 -10 0 -18 -9 -20 -22 -2 -13 -8 -23 -15 -23
-7 0 -18 -8 -26 -18 -11 -17 -13 -8 -13 67 1 78 -1 87 -21 101 -13 9 -23 23
-23 31 0 8 -10 14 -22 14 -22 1 -22 1 -4 12 15 8 21 8 24 0 2 -7 11 -12 21
-12 10 0 23 -14 31 -35 8 -19 15 -35 17 -35 2 0 13 8 24 19 17 16 18 20 6 33
-8 8 -18 24 -21 36 -7 19 -4 22 23 22 31 0 31 0 31 -55z m80 -35 c0 -31 -4
-60 -9 -65 -5 -6 -11 -25 -13 -44 -6 -63 -24 -45 -21 21 1 35 7 64 13 66 14 5
12 28 -4 41 -7 6 -11 22 -9 35 4 22 8 23 24 13 15 -9 19 -24 19 -67z m-320 30
c0 -5 -2 -10 -4 -10 -3 0 -8 5 -11 10 -3 6 -1 10 4 10 6 0 11 -4 11 -10z
m2040 -37 c0 -20 -24 -11 -28 10 -2 12 1 15 12 11 9 -3 16 -13 16 -21z m-2610
3 c0 -8 -6 -16 -12 -19 -7 -2 -10 -8 -6 -12 4 -4 14 -2 23 5 8 7 15 9 15 5 0
-4 -8 -13 -17 -20 -13 -10 -19 -10 -30 1 -14 14 -17 37 -6 47 12 12 33 7 33
-7z m595 4 c-3 -5 -2 -10 3 -10 5 0 14 -11 20 -24 13 -30 -6 -42 -25 -17 -15
20 -17 61 -2 61 5 0 7 -4 4 -10z m3086 -13 c-5 -5 -18 -7 -28 -3 -14 6 -15 9
-4 16 19 11 46 1 32 -13z m159 -9 c0 -16 -3 -19 -11 -11 -6 6 -8 16 -5 22 11
17 16 13 16 -11z m-80 -8 c0 -5 -4 -10 -10 -10 -5 0 -10 5 -10 10 0 6 5 10 10
10 6 0 10 -4 10 -10z m-554 -25 c8 -21 -6 -41 -17 -24 -12 19 -11 39 1 39 6 0
13 -7 16 -15z m274 5 c0 -5 -4 -10 -10 -10 -5 0 -10 5 -10 10 0 6 5 10 10 10
6 0 10 -4 10 -10z m-566 -15 c4 -11 -1 -15 -19 -15 -26 0 -34 15 -12 23 20 9
25 8 31 -8z m784 -22 c2 -13 -4 -22 -17 -26 -30 -7 -44 13 -24 35 20 22 37 19
41 -9z m328 6 c9 -16 -16 -29 -42 -23 -12 3 -31 1 -43 -5 -17 -10 -20 -9 -15
4 10 24 88 43 100 24z m-3926 -14 c0 -8 -9 -15 -20 -15 -11 0 -20 7 -20 15 0
8 9 15 20 15 11 0 20 -7 20 -15z m530 -11 c0 -14 -4 -23 -10 -19 -5 3 -10 15
-10 26 0 10 5 19 10 19 6 0 10 -12 10 -26z m2345 16 c4 -6 -5 -10 -19 -10 -14
0 -26 5 -26 10 0 6 9 10 19 10 11 0 23 -4 26 -10z m-2535 -14 c0 -7 -9 -16
-20 -19 -19 -5 -28 12 -13 26 11 12 33 7 33 -7z m1895 -34 c-6 -6 -34 28 -35
42 0 5 9 -1 20 -14 11 -13 18 -26 15 -28z m865 -22 c0 -5 -7 -10 -15 -10 -8 0
-15 5 -15 10 0 6 7 10 15 10 8 0 15 -4 15 -10z m-2363 -32 c-3 -7 -5 -2 -5 12
0 14 2 19 5 13 2 -7 2 -19 0 -25z m-587 -19 c0 -11 -4 -17 -10 -14 -5 3 -10
13 -10 21 0 8 5 14 10 14 6 0 10 -9 10 -21z m470 11 c0 -5 -4 -10 -10 -10 -5
0 -10 5 -10 10 0 6 5 10 10 10 6 0 10 -4 10 -10z m-530 -14 c0 -3 -4 -8 -10
-11 -5 -3 -10 -1 -10 4 0 6 5 11 10 11 6 0 10 -2 10 -4z m3782 -26 c3 -19 0
-30 -8 -30 -12 0 -24 22 -24 46 0 27 28 14 32 -16z m-1624 -12 c6 -13 13 -32
16 -43 3 -11 17 -32 31 -48 28 -30 19 -42 -27 -35 -18 2 -24 10 -26 38 -3 32
-23 60 -44 60 -15 0 -8 -39 10 -49 16 -9 16 -11 -4 -28 -37 -33 -60 -43 -73
-30 -6 6 -11 17 -11 24 0 8 -13 16 -30 19 -16 4 -27 10 -24 15 6 10 -9 12 -19
3 -3 -4 5 -16 19 -27 16 -12 22 -22 15 -26 -6 -4 -12 -22 -14 -40 -3 -28 -11
-37 -42 -52 -47 -23 -45 -23 -45 1 0 13 5 18 15 13 9 -3 15 -2 14 3 -4 22 2
34 16 34 17 0 20 16 5 25 -8 5 -7 12 1 22 13 15 9 20 -26 38 -6 3 -5 7 3 11 6
3 12 13 12 22 0 8 -3 12 -6 9 -4 -3 -14 -2 -23 3 -13 7 -16 4 -15 -17 0 -13 7
-28 14 -33 11 -7 8 -16 -15 -45 -23 -32 -29 -35 -37 -21 -10 18 -38 22 -38 6
0 -7 -6 -8 -16 -2 -18 10 -74 3 -74 -9 0 -5 -7 -9 -15 -9 -12 0 -13 4 -3 25
14 32 8 37 -40 39 -52 1 -75 -18 -67 -56 5 -21 3 -28 -9 -28 -9 0 -16 8 -16
20 0 18 -3 19 -20 10 -12 -6 -20 -7 -20 -1 0 5 -16 15 -36 21 -64 22 -87 38
-90 64 -1 14 2 28 7 31 5 4 9 18 9 32 0 25 1 26 53 20 28 -2 131 -2 227 2 96
4 236 8 311 9 132 2 136 1 147 -20z m990 -29 c-3 -25 -23 -36 -30 -17 -3 7 -1
24 4 37 11 30 31 15 26 -20z m-2218 12 c0 -13 -42 -91 -49 -91 -3 0 -40 7 -81
16 -41 9 -90 18 -107 21 -23 4 -33 11 -33 23 0 26 23 31 137 29 57 -1 107 1
110 5 9 9 23 7 23 -3z m-530 -45 c-7 -18 -16 -26 -28 -24 -21 5 -17 37 6 54
24 18 35 2 22 -30z m-570 30 c0 -11 -19 -15 -25 -6 -3 5 1 10 9 10 9 0 16 -2
16 -4z m430 0 c0 -11 -19 -15 -25 -6 -3 5 1 10 9 10 9 0 16 -2 16 -4z m2930
-16 c0 -11 -7 -20 -15 -20 -17 0 -18 2 -9 24 9 23 24 20 24 -4z m-3590 -10 c0
-11 -6 -20 -14 -20 -18 0 -29 16 -21 30 11 18 35 11 35 -10z m610 -15 c0 -17
-48 -75 -61 -75 -27 0 -30 27 -6 54 19 22 67 37 67 21z m-700 -20 c0 -8 -4
-15 -9 -15 -13 0 -22 16 -14 24 11 11 23 6 23 -9z m1190 -5 c0 -5 9 -10 20
-10 11 0 29 -4 40 -10 11 -5 29 -14 40 -20 11 -5 27 -10 35 -10 8 0 15 -2 15
-5 0 -10 -25 -48 -44 -68 -18 -19 -19 -18 -83 47 -57 59 -83 78 -83 61 0 -3 9
-15 20 -27 11 -12 20 -28 20 -35 0 -7 5 -13 10 -13 6 0 10 -7 10 -15 0 -8 3
-15 8 -15 8 0 32 -49 32 -67 0 -7 -3 -13 -6 -13 -11 0 -34 29 -34 44 0 9 -6
16 -13 16 -9 0 -12 -10 -9 -31 3 -22 1 -30 -7 -25 -6 4 -11 2 -11 -3 0 -6 -4
-11 -10 -11 -5 0 -10 9 -10 19 0 11 -16 50 -35 87 l-36 68 23 22 c16 16 35 23
66 23 23 1 42 -3 42 -9z m-932 -22 c-6 -18 -28 -21 -28 -4 0 9 7 16 16 16 9 0
14 -5 12 -12z m271 -27 c-13 -10 -41 -24 -62 -31 -21 -6 -41 -18 -44 -26 -6
-16 -23 -9 -23 10 0 14 33 32 90 52 52 18 66 16 39 -5z m281 4 c0 -8 -4 -15
-10 -15 -5 0 -10 7 -10 15 0 8 5 15 10 15 6 0 10 -7 10 -15z m2715 5 c-3 -5
-10 -10 -16 -10 -5 0 -9 5 -9 10 0 6 7 10 16 10 8 0 12 -4 9 -10z m-875 -11
c13 -9 13 -12 -4 -22 -44 -28 -76 -60 -76 -76 0 -9 -16 -25 -35 -35 -29 -16
-37 -17 -50 -6 -13 11 -18 10 -31 -8 -10 -14 -26 -22 -45 -22 -16 0 -29 -4
-29 -10 0 -5 -4 -10 -10 -10 -5 0 -10 11 -10 24 0 24 21 36 68 36 15 0 22 6
22 20 0 13 7 20 20 20 11 0 20 -4 20 -10 0 -5 -8 -10 -17 -10 -15 0 -16 -2 -3
-10 22 -14 40 -12 40 5 0 8 8 15 18 15 10 0 23 5 29 11 16 16 -10 41 -33 32
-12 -4 -15 -3 -10 5 4 7 2 12 -6 12 -10 0 -9 3 2 9 8 6 27 7 43 4 21 -4 33 0
48 16 22 24 28 25 49 10z m-2248 -14 c0 -5 -5 -11 -11 -13 -6 -2 -11 4 -11 13
0 9 5 15 11 13 6 -2 11 -8 11 -13z m646 -12 c6 -15 12 -40 12 -55 0 -15 5 -28
10 -28 6 0 10 -13 10 -30 0 -20 -5 -30 -15 -30 -8 0 -15 -4 -15 -10 0 -5 12
-10 26 -10 16 0 24 -5 22 -12 -3 -7 -9 -13 -14 -13 -5 0 -14 -3 -19 -7 -6 -3
-26 -9 -45 -12 -30 -6 -40 -2 -67 24 l-33 31 0 -25 c0 -19 5 -26 20 -26 20 0
47 -46 35 -58 -3 -3 -5 0 -5 6 0 7 -10 12 -22 12 -31 0 -123 84 -115 104 4 9
16 16 27 16 11 0 20 5 20 10 0 6 4 10 10 10 19 0 130 104 130 121 0 18 15 8
28 -18z m-349 -45 c-11 -21 -35 -24 -42 -5 -4 9 -8 9 -15 -2 -5 -7 -12 -9 -15
-4 -3 5 3 16 14 23 10 8 19 20 19 26 0 22 25 22 37 0 7 -14 8 -27 2 -38z
m1234 46 c-5 -14 -1 -16 20 -12 25 5 25 4 10 -19 -17 -26 -24 -28 -40 -12 -11
11 -5 59 8 59 5 0 6 -7 2 -16z m846 -3 c18 -1 8 -12 -14 -15 -9 -1 -21 -9 -27
-17 -8 -11 -9 -11 -4 4 6 20 -12 23 -20 3 -3 -8 -11 -13 -18 -10 -22 8 -38
-22 -31 -57 5 -23 10 -28 16 -18 6 11 9 10 15 -5 4 -11 1 -22 -7 -28 -11 -7
-11 -11 -1 -15 6 -2 12 -11 12 -19 0 -13 -5 -12 -30 3 -30 17 -39 33 -20 33 6
0 10 9 10 20 0 13 -7 20 -18 20 -14 0 -19 8 -19 30 0 25 6 31 34 41 18 6 33
14 33 19 0 10 27 17 55 14 11 -1 26 -2 34 -3z m-2412 -27 c-3 -3 -12 -4 -19
-1 -8 3 -5 6 6 6 11 1 17 -2 13 -5z m1889 -9 c-36 -19 -52 -19 -36 0 7 8 24
15 39 15 l26 0 -29 -15z m554 5 c0 -5 -7 -10 -15 -10 -8 0 -15 5 -15 10 0 6 7
10 15 10 8 0 15 -4 15 -10z m-2680 -21 c0 -5 -7 -9 -15 -9 -15 0 -20 12 -9 23
8 8 24 -1 24 -14z m1720 7 c0 -3 -4 -8 -10 -11 -5 -3 -10 -1 -10 4 0 6 5 11
10 11 6 0 10 -2 10 -4z m185 -6 c-3 -5 -10 -10 -16 -10 -5 0 -9 5 -9 10 0 6 7
10 16 10 8 0 12 -4 9 -10z m153 -45 c9 -3 28 3 44 15 15 11 34 20 42 20 8 0
18 5 21 10 3 6 16 10 28 10 18 0 19 -2 7 -10 -8 -5 -11 -10 -6 -10 5 0 -6 -13
-24 -30 -18 -16 -28 -30 -21 -30 9 0 9 -5 1 -20 -10 -19 -12 -19 -37 -2 -19
12 -25 13 -18 3 6 -11 4 -13 -7 -8 -9 3 -20 1 -26 -5 -18 -18 -40 -2 -35 25 3
14 0 28 -6 31 -6 4 -11 2 -11 -5 0 -7 -10 -9 -30 -5 -22 4 -30 2 -30 -9 0 -8
-6 -15 -14 -15 -7 0 -19 -7 -27 -16 -12 -14 -14 -13 -21 7 -7 18 -4 27 14 41
25 19 63 24 73 8 10 -15 25 -12 32 8 13 33 28 42 31 17 2 -13 11 -26 20 -30z
m657 45 c-3 -5 -10 -10 -16 -10 -5 0 -9 5 -9 10 0 6 7 10 16 10 8 0 12 -4 9
-10z m-45 -15 c0 -2 -9 -3 -19 -2 -11 0 -18 5 -15 9 4 6 34 0 34 -7z m-2440
-5 c0 -5 -7 -10 -15 -10 -8 0 -15 5 -15 10 0 6 7 10 15 10 8 0 15 -4 15 -10z
m2550 0 c0 -5 -11 -10 -24 -10 -14 0 -28 5 -31 10 -4 6 7 10 24 10 17 0 31 -4
31 -10z m980 0 c0 -3 -5 -11 -12 -18 -9 -9 -7 -12 9 -12 12 0 23 -6 26 -12 2
-8 8 -9 13 -4 5 5 4 11 -3 13 -7 3 -13 9 -13 14 0 13 88 11 92 -2 3 -8 36 -11
100 -10 70 1 97 -1 100 -11 8 -20 102 -11 127 13 17 16 35 19 116 19 52 0 95
-2 95 -5 0 -11 -24 -55 -30 -55 -4 0 -13 -13 -20 -30 -7 -16 -17 -30 -22 -30
-5 0 -7 -4 -4 -9 3 -5 -1 -14 -9 -21 -8 -7 -15 -19 -15 -26 0 -8 -6 -14 -14
-14 -21 0 -47 -55 -33 -69 8 -8 6 -11 -6 -11 -10 0 -20 -6 -23 -14 -6 -16 -44
-29 -44 -15 0 5 9 14 20 21 17 11 28 38 16 38 -16 0 -36 -14 -36 -26 0 -8 -7
-14 -15 -14 -17 0 -20 -25 -5 -35 17 -11 11 -23 -12 -27 -13 -2 -23 -10 -23
-18 0 -8 -10 -16 -22 -18 -31 -5 -29 13 6 44 19 17 27 32 24 45 -5 18 -7 18
-23 4 -33 -30 -56 -10 -24 22 11 12 12 19 4 27 -8 8 -14 6 -21 -6 -6 -11 -22
-18 -42 -18 -21 0 -27 -3 -19 -9 18 -11 -41 -36 -64 -27 -11 4 -26 -2 -41 -15
l-23 -22 0 25 c0 15 7 29 17 32 14 6 14 9 -5 26 -25 24 -50 25 -77 4 -19 -14
-19 -16 -2 -25 9 -6 17 -16 17 -24 0 -19 60 -51 69 -36 4 6 39 9 88 8 68 -2
83 -5 87 -19 5 -20 8 -19 -124 -22 -47 -1 -89 -4 -95 -6 -17 -6 -65 11 -65 24
0 7 -3 6 -9 -2 -4 -7 -18 -14 -29 -15 -12 -1 -22 -5 -22 -9 0 -4 -4 -8 -10 -8
-13 0 -13 37 0 45 6 3 -1 18 -15 33 -18 19 -24 34 -20 50 3 12 1 22 -4 22 -5
0 -11 -9 -14 -20 -3 -11 -13 -20 -22 -20 -9 0 -13 5 -10 10 3 6 -3 10 -14 10
-13 0 -21 7 -22 18 -1 16 -2 16 -6 0 -5 -20 -34 -23 -64 -7 -14 7 -24 7 -33 0
-7 -6 -40 -12 -72 -12 -32 -1 -68 -8 -79 -15 -16 -10 -24 -10 -44 0 -18 10
-29 10 -47 2 -31 -14 -30 -26 1 -26 14 0 25 -5 25 -11 0 -12 29 -38 42 -39 4
0 8 10 10 23 3 20 8 22 49 19 35 -3 48 0 52 12 8 20 37 21 37 2 0 -11 17 -14
72 -14 63 1 74 -2 90 -23 16 -19 21 -20 29 -8 5 7 9 20 9 27 0 7 9 3 21 -9 21
-21 21 -22 3 -33 -27 -16 -90 -22 -159 -15 -36 4 -77 1 -102 -7 -24 -6 -55
-10 -70 -8 -98 14 -123 15 -123 5 0 -8 -5 -9 -19 -1 -11 5 -42 10 -70 10 -56
0 -81 7 -81 24 0 18 -47 36 -59 22 -7 -8 -4 -16 10 -24 16 -10 28 -42 15 -42
-16 0 -36 14 -36 26 0 8 -7 14 -15 14 -8 0 -15 -9 -15 -20 0 -15 -7 -20 -25
-20 -14 0 -25 3 -25 8 0 9 -92 8 -108 -1 -6 -4 -63 -7 -127 -6 -89 1 -119 5
-131 16 -8 9 -12 18 -8 22 4 3 9 0 11 -6 5 -15 53 -18 53 -3 0 6 7 10 15 10 8
0 15 -4 15 -10 0 -19 18 -10 23 12 5 17 9 19 20 9 11 -8 22 -9 41 -1 15 5 43
10 62 10 37 0 43 10 19 30 -9 7 -14 19 -11 27 3 8 2 11 -3 8 -11 -6 -26 13
-17 22 3 3 19 -7 37 -21 27 -23 37 -26 75 -20 30 4 44 3 44 -5 0 -6 -12 -11
-26 -11 -22 0 -25 -2 -14 -15 7 -8 22 -15 34 -15 22 0 51 34 41 49 -5 9 23 26
38 22 12 -2 71 49 73 64 3 21 -23 26 -41 9 -8 -9 -15 -19 -15 -24 0 -4 -7 -10
-14 -13 -10 -4 -13 -1 -9 9 4 11 -5 14 -46 14 -47 0 -51 -2 -51 -24 0 -19 -5
-24 -20 -23 -29 2 -25 18 16 55 32 29 37 31 48 17 10 -14 15 -13 45 15 19 16
39 30 45 30 6 0 5 -4 -3 -9 -8 -5 -9 -11 -3 -14 14 -10 82 -5 76 5 -3 4 10 9
28 9 69 3 103 -3 122 -25 13 -14 20 -17 23 -8 3 6 16 12 29 12 13 0 24 5 24
11 0 6 7 8 16 5 9 -4 23 -1 32 6 8 7 21 13 30 13 8 0 18 10 23 23 5 12 4 22
-1 22 -5 0 -16 7 -24 16 -9 8 -16 11 -16 5 0 -6 -13 -11 -28 -11 -16 0 -37 -8
-48 -18 -28 -26 -74 -37 -74 -17 0 9 -9 15 -25 15 -14 0 -25 5 -25 10 0 6 5
10 11 10 5 0 7 4 4 10 -4 6 -54 8 -133 5 -70 -3 -144 -5 -164 -5 -26 0 -41 -6
-52 -21 -8 -12 -13 -26 -10 -31 3 -5 -7 -14 -23 -20 -16 -6 -35 -24 -42 -40
-7 -15 -16 -26 -21 -23 -13 8 -19 -22 -7 -34 8 -8 7 -11 -6 -11 -9 0 -17 -4
-17 -9 0 -5 -29 -9 -65 -10 -59 0 -65 2 -65 20 0 15 5 19 18 15 10 -4 27 1 38
9 10 8 31 15 47 15 15 0 27 5 27 10 0 6 -4 10 -10 10 -16 0 -11 26 9 44 10 9
31 19 47 22 16 3 29 6 29 7 0 1 10 16 23 34 26 38 27 43 7 43 -8 0 -15 5 -15
10 0 6 6 10 14 10 8 0 18 -4 21 -10 3 -5 15 -10 25 -10 10 0 21 -6 24 -12 5
-10 7 -10 12 0 3 6 21 12 39 12 19 0 37 4 40 10 4 6 52 8 123 5 157 -6 200 -6
244 1 29 5 39 3 44 -10 5 -13 10 -14 27 -3 30 16 85 17 116 1 21 -11 27 -11
29 -1 5 22 45 35 110 34 34 -1 62 -4 62 -7z m-1510 -19 c0 -5 -9 -11 -20 -14
-17 -4 -18 -2 -9 14 9 18 29 18 29 0z m-406 -9 c-6 -4 -13 -15 -17 -25 -4 -10
-11 -15 -17 -12 -18 11 -11 35 13 44 24 9 38 4 21 -7z m2296 8 c0 -5 -7 -10
-15 -10 -8 0 -15 5 -15 10 0 6 7 10 15 10 8 0 15 -4 15 -10z m-1655 -20 c3 -5
-3 -10 -15 -10 -12 0 -18 5 -15 10 3 6 10 10 15 10 5 0 12 -4 15 -10z m-2485
-29 c0 -10 -7 -24 -15 -31 -8 -7 -15 -19 -15 -27 0 -8 -4 -11 -10 -8 -14 9
-12 53 3 70 17 20 37 18 37 -4z m1680 10 c0 -6 -4 -13 -10 -16 -5 -3 -10 1
-10 9 0 9 5 16 10 16 6 0 10 -4 10 -9z m530 -1 c0 -13 -11 -13 -30 0 -12 8
-11 10 8 10 12 0 22 -4 22 -10z m-2045 -10 c3 -5 1 -10 -4 -10 -6 0 -11 5 -11
10 0 6 2 10 4 10 3 0 8 -4 11 -10z m2529 2 c7 -11 -23 -47 -31 -37 -5 4 -3 10
4 12 7 2 9 11 6 19 -5 14 12 20 21 6z m-2254 -12 c0 -5 -7 -10 -15 -10 -8 0
-15 5 -15 10 0 6 7 10 15 10 8 0 15 -4 15 -10z m620 -1 c0 -5 -4 -7 -10 -4 -5
3 -10 -1 -10 -9 0 -9 -4 -16 -10 -16 -5 0 -10 9 -10 20 0 13 7 20 20 20 11 0
20 -5 20 -11z m660 1 c0 -5 -4 -10 -10 -10 -5 0 -10 5 -10 10 0 6 5 10 10 10
6 0 10 -4 10 -10z m758 -17 c2 -13 -1 -23 -7 -23 -6 0 -11 7 -11 15 0 9 -9 15
-25 15 -16 0 -25 -6 -25 -15 0 -8 -7 -15 -15 -15 -7 0 -18 -8 -24 -17 -9 -17
-11 -17 -28 1 -13 13 -15 20 -5 23 6 3 10 9 6 14 -3 5 10 9 28 9 18 0 40 5 48
10 25 16 55 7 58 -17z m-2393 0 c32 -15 49 -43 26 -43 -5 0 -12 -8 -14 -17 -4
-15 -6 -15 -12 5 -4 12 -12 22 -17 22 -5 0 -7 -4 -4 -9 6 -8 -15 -21 -35 -21
-5 0 -9 18 -9 40 0 46 10 49 65 23z m275 -3 c0 -5 -4 -10 -10 -10 -5 0 -10 5
-10 10 0 6 5 10 10 10 6 0 10 -4 10 -10z m320 0 c0 -5 18 -27 40 -49 22 -22
40 -44 40 -50 0 -5 10 -17 22 -25 12 -9 19 -16 15 -16 -10 0 -71 43 -75 53 -8
17 -23 5 -17 -14 5 -13 3 -19 -3 -15 -5 3 -15 -1 -22 -9 -10 -12 -14 -12 -26
0 -8 7 -14 20 -14 28 0 8 -7 17 -15 21 -8 3 -15 12 -15 21 0 8 -4 15 -10 15
-5 0 -10 7 -10 15 0 8 9 15 19 15 11 0 23 5 26 10 8 13 45 13 45 0z m974 -5
c-4 -8 -8 -15 -10 -15 -2 0 -4 7 -4 15 0 8 4 15 10 15 5 0 7 -7 4 -15z m1766
5 c0 -5 -4 -10 -10 -10 -5 0 -10 5 -10 10 0 6 5 10 10 10 6 0 10 -4 10 -10z
m-1106 -12 c-3 -7 -17 -22 -31 -32 -23 -17 -27 -17 -37 -4 -6 8 -18 17 -26 21
-8 3 3 6 25 6 22 1 47 6 55 11 19 13 20 12 14 -2z m-2066 -39 c2 -5 33 -9 68
-9 71 0 77 -8 43 -50 l-20 -25 6 30 5 30 -100 -1 c-99 -1 -100 -1 -100 23 0
23 2 24 48 17 26 -4 49 -11 50 -15z m322 -4 c0 -14 3 -25 8 -25 8 0 32 -49 32
-67 0 -7 -4 -13 -10 -13 -5 0 -10 7 -10 16 0 9 -9 18 -20 21 -16 4 -20 14 -20
49 0 24 5 44 10 44 6 0 10 -11 10 -25z m1557 17 c8 -5 4 -15 -12 -35 -13 -15
-27 -27 -30 -27 -9 0 -5 30 7 50 14 22 17 23 35 12z m553 1 c0 -5 -4 -14 -9
-22 -7 -10 -13 -11 -30 -2 -12 7 -19 16 -16 22 7 11 55 12 55 2z m40 -2 c0 -5
-7 -11 -14 -14 -10 -4 -13 -1 -9 9 6 15 23 19 23 5z m-2197 -13 c-6 -7 -13
-25 -17 -40 -4 -17 -13 -28 -24 -28 -14 0 -14 2 -3 9 11 7 10 10 -5 13 -29 6
-54 -3 -54 -19 0 -8 -5 -11 -11 -7 -8 4 -8 9 0 17 6 6 11 18 11 27 0 18 41 37
84 39 21 1 26 -2 19 -11z m1367 -18 c0 -5 -4 -10 -10 -10 -5 0 -10 5 -10 10 0
6 5 10 10 10 6 0 10 -4 10 -10z m60 -15 c0 -8 -6 -15 -14 -15 -20 0 -29 17
-14 23 22 9 28 7 28 -8z m580 0 c0 -11 8 -13 30 -8 27 5 30 3 30 -21 0 -14 -3
-25 -7 -25 -27 4 -53 -3 -53 -15 0 -8 -4 -18 -10 -21 -6 -4 -7 1 -3 10 4 13 1
16 -13 13 -12 -2 -20 -13 -22 -31 -3 -28 -4 -28 -23 -11 -15 13 -22 15 -31 6
-19 -19 -30 -14 -26 11 2 17 9 22 31 22 20 -1 26 3 22 14 -3 8 0 18 7 23 20
12 31 9 24 -7 -3 -8 -1 -15 4 -15 6 0 10 9 10 19 0 26 10 51 21 51 5 0 9 -7 9
-15z m108 -6 c-19 -13 -28 -11 -28 5 0 9 7 12 21 9 16 -4 17 -8 7 -14z m-390
-14 c1 -14 -3 -25 -8 -25 -6 0 -10 9 -10 21 0 11 -4 17 -10 14 -5 -3 -10 -1
-10 4 0 6 8 11 18 11 12 0 18 -8 20 -25z m567 16 c-3 -5 5 -11 17 -14 21 -3
21 -4 4 -12 -12 -5 -21 -3 -27 6 -12 19 -11 29 2 29 5 0 8 -4 4 -9z m-939 -15
c32 -32 -1 -50 -39 -22 -18 14 -18 15 0 25 23 13 22 13 39 -3z m-1702 -11 c3
-9 0 -15 -9 -15 -8 0 -15 7 -15 15 0 8 4 15 9 15 5 0 11 -7 15 -15z m1826 5
c0 -5 -9 -10 -20 -10 -11 0 -20 5 -20 10 0 6 9 10 20 10 11 0 20 -4 20 -10z
m403 -5 c8 -20 -11 -29 -28 -15 -9 7 -15 8 -15 2 0 -10 -30 -26 -36 -19 -2 2
4 13 14 25 20 25 57 29 65 7z m-463 -36 c0 -3 9 -9 21 -12 12 -3 18 -10 14
-16 -10 -16 -45 -13 -45 4 0 8 -4 15 -10 15 -5 0 -10 4 -10 8 0 5 7 9 15 9 8
0 15 -4 15 -8z m1010 -4 c0 -8 -4 -15 -9 -15 -13 0 -22 16 -14 24 11 11 23 6
23 -9z m-910 -16 c0 -16 29 -41 40 -34 5 3 10 -1 10 -9 0 -10 -9 -16 -25 -16
-14 0 -25 4 -25 9 0 5 -7 11 -14 14 -10 4 -13 1 -9 -9 4 -10 0 -12 -11 -8 -20
8 -20 23 1 46 18 20 33 24 33 7z m-510 -8 c0 -6 -4 -13 -10 -16 -5 -3 -10 1
-10 9 0 9 5 16 10 16 6 0 10 -4 10 -9z m314 -6 c-5 -12 -10 -13 -20 -4 -19 15
-18 19 6 19 13 0 18 -5 14 -15z m422 -22 c-11 -11 -17 4 -9 23 7 18 8 18 11 1
2 -10 1 -21 -2 -24z m111 31 c-3 -3 -12 -4 -19 -1 -8 3 -5 6 6 6 11 1 17 -2
13 -5z m213 -13 c0 -11 -50 -44 -57 -38 -7 8 39 57 49 51 4 -3 8 -9 8 -13z
m-675 -14 c12 -10 14 -16 7 -21 -13 -8 -52 10 -52 24 0 14 23 12 45 -3z m235
-6 c0 -4 -11 -13 -25 -19 -30 -14 -35 3 -8 24 18 12 33 10 33 -5z m93 -1 c3
-11 1 -20 -4 -20 -5 0 -9 9 -9 20 0 11 2 20 4 20 2 0 6 -9 9 -20z m107 10 c0
-5 -4 -10 -10 -10 -5 0 -10 5 -10 10 0 6 5 10 10 10 6 0 10 -4 10 -10z m147
-22 c-3 -7 -5 -2 -5 12 0 14 2 19 5 13 2 -7 2 -19 0 -25z m-745 0 c-9 -9 -15
-9 -24 0 -9 9 -7 12 12 12 19 0 21 -3 12 -12z m232 -4 c9 -23 8 -25 -11 -22
-12 2 -19 -6 -23 -27 l-6 -30 -5 38 c-4 26 -1 37 8 37 7 0 13 5 13 10 0 16 17
12 24 -6z m639 9 c-7 -2 -19 -2 -25 0 -7 3 -2 5 12 5 14 0 19 -2 13 -5z m-929
-24 c-3 -5 -10 -7 -15 -3 -5 3 -7 10 -3 15 3 5 10 7 15 3 5 -3 7 -10 3 -15z
m152 -4 c-3 -8 3 -19 12 -25 13 -7 8 -8 -18 -3 -45 8 -49 12 -26 29 26 18 40
18 32 -1z m590 -25 c13 0 24 -4 24 -10 0 -5 -13 -10 -30 -10 -25 0 -30 4 -29
23 0 12 3 16 6 10 2 -7 16 -13 29 -13z m2004 -12 c0 -9 -34 -11 -43 -2 -3 3
-3 12 0 20 4 10 9 11 24 1 10 -6 19 -15 19 -19z m-2070 2 c0 -5 -7 -10 -16
-10 -8 0 -12 5 -9 10 3 6 10 10 16 10 5 0 9 -4 9 -10z m170 0 c0 -5 -13 -10
-30 -10 -16 0 -30 5 -30 10 0 6 14 10 30 10 17 0 30 -4 30 -10z m2046 2 c-7
-12 -96 -15 -96 -2 0 5 22 10 51 10 27 0 48 -4 45 -8z m-426 -22 c0 -5 -4 -10
-10 -10 -5 0 -10 5 -10 10 0 6 5 10 10 10 6 0 10 -4 10 -10z m-703 -56 c-9 -9
-28 6 -21 18 4 6 10 6 17 -1 6 -6 8 -13 4 -17z m548 12 c11 -4 28 -12 38 -17
10 -5 17 -5 17 0 0 12 27 22 44 15 8 -3 17 -20 21 -37 4 -18 9 -37 10 -44 4
-14 -74 -93 -90 -93 -7 0 -10 12 -7 30 2 17 9 30 14 30 6 0 8 7 4 15 -3 8 2
21 10 30 12 12 13 15 2 15 -8 0 -19 -5 -26 -12 -9 -9 -15 -9 -24 0 -17 17 -64
15 -82 -3 -8 -8 -17 -15 -20 -15 -3 0 -3 7 0 15 5 12 -4 15 -50 15 -31 0 -56
5 -56 10 0 15 -87 12 -93 -2 -4 -10 -8 -9 -16 2 -13 19 11 34 39 25 11 -4 20
-2 20 3 0 6 8 8 18 5 10 -2 23 2 29 9 13 14 163 18 198 4z m265 -1 c0 -8 -4
-15 -10 -15 -5 0 -10 7 -10 15 0 8 5 15 10 15 6 0 10 -7 10 -15z m125 5 c3 -5
1 -10 -4 -10 -6 0 -11 5 -11 10 0 6 2 10 4 10 3 0 8 -4 11 -10z m83 -11 c2
-12 -4 -16 -23 -16 -19 0 -23 3 -15 12 5 6 6 15 2 20 -4 4 2 6 13 3 11 -2 21
-10 23 -19z m-1318 -4 c0 -8 -4 -15 -10 -15 -5 0 -10 7 -10 15 0 8 5 15 10 15
6 0 10 -7 10 -15z m505 -5 c0 -8 -7 -15 -15 -16 -35 -2 -40 -5 -40 -24 0 -15
7 -20 24 -20 14 0 28 -5 32 -12 5 -7 2 -9 -9 -5 -9 3 -18 -1 -21 -10 -4 -11
-10 -12 -19 -5 -6 5 -46 10 -87 11 -41 1 -76 6 -78 11 -2 6 -15 10 -28 10 -13
0 -24 5 -24 10 0 6 -8 10 -19 10 -10 0 -24 7 -32 16 -10 13 -10 17 2 25 22 14
53 6 63 -17 7 -16 19 -21 48 -22 22 -1 47 -6 57 -11 12 -7 26 -4 47 10 16 10
23 19 16 19 -25 0 -6 25 24 31 41 10 59 6 59 -11z m905 -22 c0 -12 -8 -18 -21
-18 -11 0 -18 4 -15 9 3 5 -4 12 -17 16 -21 8 -21 8 6 12 15 2 27 10 27 16 0
19 20 -16 20 -35z m-1745 22 c3 -6 -1 -7 -9 -4 -18 7 -21 14 -7 14 6 0 13 -4
16 -10z m698 -4 c4 -10 1 -13 -8 -9 -8 3 -12 9 -9 14 7 12 11 11 17 -5z m-993
-10 c0 -8 -7 -17 -16 -20 -25 -10 -30 2 -8 19 24 18 24 18 24 1z m565 5 c3 -5
2 -12 -3 -15 -5 -3 -9 1 -9 9 0 17 3 19 12 6z m130 -1 c-3 -5 -12 -7 -20 -3
-21 7 -19 13 6 13 11 0 18 -4 14 -10z m-1035 -30 c0 -5 -4 -10 -10 -10 -5 0
-10 5 -10 10 0 6 5 10 10 10 6 0 10 -4 10 -10z m190 -20 c0 -5 -4 -10 -10 -10
-5 0 -10 5 -10 10 0 6 5 10 10 10 6 0 10 -4 10 -10z m798 -18 c-21 -2 -38 -9
-38 -15 0 -7 -5 -4 -11 6 -16 28 -2 36 43 23 l43 -11 -37 -3z m132 13 c0 -8
-9 -15 -20 -15 -25 0 -26 17 -2 23 9 3 18 5 20 6 1 0 2 -6 2 -14z m490 0 c0
-8 -4 -15 -9 -15 -13 0 -22 16 -14 24 11 11 23 6 23 -9z m-710 1 c0 -2 -7 -9
-15 -16 -12 -10 -15 -10 -15 4 0 9 7 16 15 16 8 0 15 -2 15 -4z m880 -6 c0 -5
9 -10 20 -10 23 0 24 -4 10 -31 -13 -23 -30 -25 -30 -4 0 8 -7 15 -15 15 -17
0 -18 2 -9 24 7 18 24 22 24 6z m459 -13 c-9 -7 -14 -18 -12 -24 4 -11 -15
-18 -39 -14 -5 0 -8 -3 -8 -9 0 -5 -4 -10 -10 -10 -6 0 -5 10 2 25 6 14 19 25
28 25 10 0 23 7 30 15 7 9 16 13 19 9 3 -3 -1 -11 -10 -17z m78 -3 c16 -25 16
-27 -2 -40 -29 -21 -65 -18 -65 6 0 11 5 20 10 20 6 0 10 7 10 16 0 8 5 12 10
9 6 -3 10 -1 10 4 0 18 8 13 27 -15z m-197 -35 c0 -10 -3 -19 -6 -19 -12 0
-35 30 -29 39 9 16 35 1 35 -20z m-100 2 c0 -22 -27 -48 -38 -36 -4 4 -1 10 6
12 6 3 12 13 12 24 0 10 5 19 10 19 6 0 10 -8 10 -19z m-1510 -11 c0 -5 -18
-10 -41 -10 -24 0 -38 4 -34 10 3 6 22 10 41 10 19 0 34 -4 34 -10z m1837 -22
c-3 -7 -5 -2 -5 12 0 14 2 19 5 13 2 -7 2 -19 0 -25z m-1450 0 c-3 -8 -6 -5
-6 6 -1 11 2 17 5 13 3 -3 4 -12 1 -19z m501 10 c-5 -20 -47 -38 -89 -38 -65
0 -43 36 26 43 22 2 46 4 53 5 6 1 11 -3 10 -10z m-188 -29 c0 -5 -4 -9 -10
-9 -5 0 -10 7 -10 16 0 8 5 12 10 9 6 -3 10 -10 10 -16z m720 -159 c0 -11 -4
-20 -10 -20 -5 0 -10 -6 -10 -13 0 -8 -9 -22 -20 -32 -18 -16 -20 -16 -20 -2
0 10 5 17 10 17 6 0 10 7 10 15 0 18 22 55 32 55 5 0 8 -9 8 -20z m144 11 c3
-5 -1 -11 -9 -15 -11 -4 -13 -16 -8 -53 3 -26 7 -50 9 -52 2 -2 16 9 30 24 25
28 27 28 40 10 19 -25 54 -27 54 -3 0 10 5 18 10 18 11 0 3 -69 -9 -81 -3 -4
-21 -10 -38 -14 -29 -6 -33 -4 -33 13 0 11 6 23 13 25 6 3 2 6 -9 6 -15 1 -21
-5 -20 -16 0 -12 -7 -19 -21 -21 -13 -2 -23 1 -23 7 0 6 -4 11 -10 11 -5 0
-10 -7 -10 -15 0 -21 -27 -30 -45 -15 -12 10 -12 16 -4 26 6 8 8 25 5 38 -7
28 11 46 20 22 10 -27 24 -7 24 35 0 33 -3 39 -22 40 -22 1 -22 1 2 9 35 11
48 11 54 1z m136 -22 c0 -10 -4 -19 -10 -19 -5 0 -10 12 -10 26 0 14 4 23 10
19 6 -3 10 -15 10 -26z m31 -32 c-8 -8 -11 -2 -11 19 0 40 14 54 18 19 2 -15
-1 -32 -7 -38z m-671 49 c0 -2 -9 -6 -20 -9 -11 -3 -18 -1 -14 4 5 9 34 13 34
5z m108 -3 c-10 -2 -28 -2 -40 0 -13 2 -5 4 17 4 22 1 32 -1 23 -4z m438 -30
c-10 -10 -19 5 -10 18 6 11 8 11 12 0 2 -7 1 -15 -2 -18z m-966 -27 c0 -22
-17 -36 -41 -36 -32 0 -35 4 -16 25 11 13 57 21 57 11z m195 -6 c-3 -5 -10
-10 -16 -10 -5 0 -9 5 -9 10 0 6 7 10 16 10 8 0 12 -4 9 -10z m222 -10 c-3
-10 0 -21 7 -23 6 -3 2 -8 -9 -13 -11 -4 -22 -10 -25 -13 -3 -3 -15 -12 -27
-19 -20 -11 -23 -10 -23 7 0 11 13 27 29 37 17 10 27 23 24 31 -3 8 2 13 12
13 12 0 16 -6 12 -20z m687 -12 c-5 -7 -1 -9 9 -5 11 4 17 1 17 -7 0 -7 -9
-13 -20 -12 -11 0 -20 4 -20 9 0 4 0 14 0 23 0 8 5 12 10 9 6 -4 7 -11 4 -17z
m-634 2 c0 -5 -2 -10 -4 -10 -3 0 -8 5 -11 10 -3 6 -1 10 4 10 6 0 11 -4 11
-10z m80 -21 c0 -5 -7 -9 -15 -9 -8 0 -15 -7 -15 -15 0 -23 -27 -29 -45 -11
-15 15 -15 17 2 23 10 4 24 15 31 25 11 15 17 16 28 7 8 -6 14 -15 14 -20z
m685 13 c-3 -3 -11 0 -18 7 -9 10 -8 11 6 5 10 -3 15 -9 12 -12z m-44 -36 c22
-24 9 -34 -27 -23 -20 6 -32 13 -26 15 5 1 7 12 4 24 -3 14 -1 19 6 14 6 -3
14 -1 19 6 5 9 9 7 11 -7 2 -11 8 -24 13 -29z m-471 4 c0 -12 -9 -30 -20 -42
l-20 -22 0 22 c0 12 5 22 10 22 6 0 10 9 10 20 0 11 5 20 10 20 6 0 10 -9 10
-20z m-695 0 c3 -5 -1 -10 -9 -10 -8 0 -18 5 -21 10 -3 6 1 10 9 10 8 0 18 -4
21 -10z m115 2 c0 -14 -11 -21 -26 -15 -21 8 -17 23 6 23 11 0 20 -4 20 -8z
m65 -1 c3 -5 1 -12 -5 -16 -5 -3 -10 1 -10 9 0 18 6 21 15 7z m-535 -28 c0
-21 -3 -24 -9 -14 -5 8 -7 20 -4 28 8 21 13 15 13 -14z m50 6 c0 -5 -4 -9 -10
-9 -5 0 -10 7 -10 16 0 8 5 12 10 9 6 -3 10 -10 10 -16z m590 17 c0 -2 -7 -9
-15 -16 -13 -11 -14 -10 -9 4 5 14 24 23 24 12z m-400 -16 c0 -5 -5 -10 -11
-10 -5 0 -7 5 -4 10 3 6 8 10 11 10 2 0 4 -4 4 -10z m-2230 -22 c0 -13 -32 -6
-37 9 -3 7 3 9 16 6 12 -3 21 -10 21 -15z m2298 9 c7 -5 10 -13 7 -18 -10 -16
-32 -10 -38 10 -5 19 7 22 31 8z m122 -12 c0 -14 -4 -25 -9 -25 -12 0 -19 21
-13 38 8 21 22 13 22 -13z m966 -10 c-3 -8 -10 -15 -16 -15 -13 0 -9 32 5 42
12 9 19 -7 11 -27z m-1006 5 c0 -5 -2 -10 -4 -10 -3 0 -8 5 -11 10 -3 6 -1 10
4 10 6 0 11 -4 11 -10z m420 -16 c0 -3 -7 -12 -15 -20 -16 -17 -18 -14 -9 10
6 15 24 23 24 10z m445 -24 c-8 -13 -32 -2 -32 15 0 10 5 11 19 4 10 -6 16
-14 13 -19z m191 3 c1 -22 -5 -22 -33 0 -16 12 -6 29 15 25 10 -2 18 -13 18
-25z m44 0 c0 -20 -3 -24 -11 -16 -7 7 -9 19 -6 27 10 24 17 19 17 -11z m-758
3 c8 -12 -21 -35 -44 -36 -13 0 -14 4 -5 24 11 23 36 29 49 12z m-452 -11 c0
-16 -27 -32 -36 -22 -7 6 17 36 29 37 4 0 7 -7 7 -15z m1057 9 c-3 -3 -12 -4
-19 -1 -8 3 -5 6 6 6 11 1 17 -2 13 -5z m243 -14 c0 -10 -10 -24 -21 -31 -17
-9 -20 -8 -15 3 3 7 9 21 12 31 8 23 24 22 24 -3z m-3070 -15 c0 -11 7 -14 24
-9 13 3 27 1 31 -6 11 -18 2 -20 -65 -13 l-62 6 23 18 c29 23 49 24 49 4z
m1860 -11 c0 -16 -16 -19 -25 -4 -8 13 4 32 16 25 5 -4 9 -13 9 -21z m1000 16
c0 -5 -4 -10 -10 -10 -5 0 -10 5 -10 10 0 6 5 10 10 10 6 0 10 -4 10 -10z
m-3019 -16 c11 -14 10 -15 -11 -12 -13 1 -25 9 -28 16 -5 17 23 15 39 -4z
m2399 1 c0 -19 -16 -19 -24 0 -3 9 0 15 9 15 8 0 15 -7 15 -15z m-1110 -5 c0
-5 -7 -10 -16 -10 -8 0 -12 5 -9 10 3 6 10 10 16 10 5 0 9 -4 9 -10z"/>
<path d="M2211 5624 c0 -11 3 -14 6 -6 3 7 2 16 -1 19 -3 4 -6 -2 -5 -13z"/>
<path d="M2628 4853 c-28 -7 -22 -42 8 -49 35 -9 63 18 44 40 -13 16 -21 17
-52 9z"/>
<path d="M4245 3180 l-40 -7 43 -2 c23 0 45 -1 49 -2 4 0 9 4 11 10 4 12 -2
12 -63 1z"/>
<path d="M4167 2936 c-4 -11 -6 -20 -4 -22 9 -10 99 -6 109 4 9 9 0 12 -39 12
-31 0 -53 5 -55 12 -3 7 -7 5 -11 -6z"/>
<path d="M3940 2991 c0 -6 4 -12 9 -15 13 -8 42 4 35 15 -7 12 -44 12 -44 0z"/>
<path d="M2000 1280 c0 -5 -6 -10 -13 -10 -8 0 -14 -7 -14 -15 0 -8 4 -15 9
-15 5 0 6 -4 3 -10 -3 -5 -1 -10 4 -10 6 0 11 6 11 14 0 8 10 22 22 31 21 14
24 14 35 -1 9 -12 16 -14 25 -7 22 18 97 26 113 13 12 -10 18 -10 30 0 13 10
19 10 34 -4 16 -15 20 -15 28 -3 4 8 15 17 23 20 8 3 -58 6 -147 6 -103 1
-163 -3 -163 -9z"/>
<path d="M2343 1283 c9 -2 23 -2 30 0 6 3 -1 5 -18 5 -16 0 -22 -2 -12 -5z"/>
<path d="M2030 1220 c0 -5 7 -7 15 -4 8 4 15 8 15 10 0 2 -7 4 -15 4 -8 0 -15
-4 -15 -10z"/>
<path d="M2080 1210 c0 -23 26 -26 52 -6 22 16 13 26 -24 26 -21 0 -28 -5 -28
-20z"/>
<path d="M2270 1220 c0 -5 11 -10 24 -10 14 0 28 5 31 10 4 6 -7 10 -24 10
-17 0 -31 -4 -31 -10z"/>
<path d="M1040 993 c0 -25 1 -26 16 -11 9 9 13 21 10 27 -13 20 -26 11 -26
-16z"/>
<path d="M3819 1049 c-16 -15 -20 -23 -11 -26 6 -3 12 -13 12 -24 0 -14 -7
-19 -25 -19 -13 0 -28 -6 -32 -13 -6 -9 -14 -7 -32 10 -19 18 -21 23 -8 23 10
0 17 -4 17 -10 0 -5 5 -10 10 -10 19 0 10 17 -15 28 -32 15 -65 15 -65 2 0 -5
5 -10 10 -10 6 0 10 -8 10 -19 0 -28 22 -41 79 -46 49 -4 51 -3 51 21 0 13 4
24 9 24 15 0 61 52 54 63 -3 5 -1 7 5 3 6 -3 13 -2 16 3 5 8 -24 21 -50 21 -6
0 -22 -10 -35 -21z"/>
<path d="M3898 1015 c-5 -22 -3 -25 16 -19 29 9 31 11 16 29 -18 21 -27 19
-32 -10z"/>
<path d="M4480 1021 c0 -11 -4 -23 -10 -26 -5 -3 -10 -13 -10 -22 0 -9 -8 -23
-17 -32 -17 -16 -43 -55 -43 -66 0 -3 8 -5 18 -5 10 0 26 14 36 30 9 17 22 27
28 24 7 -4 8 -2 4 5 -4 6 -3 17 2 24 13 17 22 57 15 73 -8 21 -23 17 -23 -5z"/>
<path d="M4241 1018 c0 -10 -8 -18 -16 -18 -8 0 -15 -4 -15 -10 0 -5 -12 -10
-27 -10 -24 1 -25 2 -10 11 9 5 17 14 17 19 0 13 -67 13 -75 0 -3 -5 1 -10 9
-10 9 0 16 -7 16 -15 0 -8 -4 -15 -10 -15 -5 0 -10 4 -10 9 0 5 -12 8 -27 7
-15 -2 -35 2 -45 7 -13 9 -22 7 -37 -7 -11 -10 -18 -23 -14 -29 3 -5 1 -7 -4
-4 -6 4 -18 -2 -27 -12 -15 -17 -15 -21 6 -62 29 -57 28 -56 38 -39 14 22 12
30 -6 30 -13 0 -14 3 -5 14 6 7 12 25 13 41 3 32 26 45 40 21 6 -11 17 -14 33
-10 14 3 33 -1 49 -11 16 -11 26 -13 26 -6 0 6 -7 14 -15 17 -22 9 -18 21 8
28 15 4 27 0 39 -14 19 -24 31 -25 48 -5 10 12 10 15 0 15 -10 0 -10 3 0 14 6
8 10 25 7 38 -3 15 -5 17 -6 6z"/>
<path d="M4266 984 c-8 -20 8 -51 18 -35 4 6 16 11 27 11 10 0 19 5 19 11 0 5
-4 8 -9 5 -5 -3 -11 1 -15 9 -7 20 -32 19 -40 -1z"/>
<path d="M3920 950 c-20 -12 -5 -24 16 -12 9 5 12 12 7 15 -5 3 -15 2 -23 -3z"/>
<path d="M4068 888 c-10 -11 -15 -25 -12 -29 8 -14 84 -7 84 7 0 19 -20 28
-33 15 -17 -17 -29 -13 -22 9 8 25 4 25 -17 -2z"/>
<path d="M3423 892 c-13 -2 -23 -9 -23 -17 0 -7 -6 -15 -12 -18 -7 -2 -11 -7
-8 -10 3 -3 22 2 42 12 39 18 39 39 1 33z"/>
<path d="M3520 880 c0 -5 7 -7 15 -4 8 4 15 8 15 10 0 2 -7 4 -15 4 -8 0 -15
-4 -15 -10z"/>
<path d="M3626 881 c-3 -5 6 -8 19 -8 14 0 25 3 25 8 0 5 -9 9 -19 9 -11 0
-22 -4 -25 -9z"/>
<path d="M3895 880 c-3 -5 -26 -10 -51 -10 -24 0 -44 -4 -44 -10 0 -5 28 -9
66 -9 36 1 71 -4 77 -10 8 -8 8 -11 -1 -11 -7 0 -12 -6 -12 -14 0 -9 8 -12 25
-8 33 6 32 19 -5 53 -32 31 -45 35 -55 19z"/>
<path d="M4304 865 c-18 -14 -18 -14 8 -15 20 0 26 4 22 15 -7 18 -6 18 -30 0z"/>
<path d="M4160 860 c0 -5 5 -10 10 -10 6 0 10 5 10 10 0 6 -4 10 -10 10 -5 0
-10 -4 -10 -10z"/>
<path d="M4350 840 c0 -5 5 -10 10 -10 6 0 10 5 10 10 0 6 -4 10 -10 10 -5 0
-10 -4 -10 -10z"/>
<path d="M3302 818 c-16 -16 -15 -28 2 -28 8 0 17 -6 20 -12 4 -7 4 -3 2 10
-2 12 0 22 6 22 5 0 6 5 3 10 -8 13 -18 13 -33 -2z"/>
<path d="M3350 785 c0 -8 5 -15 10 -15 6 0 10 7 10 15 0 8 -4 15 -10 15 -5 0
-10 -7 -10 -15z"/>
<path d="M3960 769 c0 -5 5 -7 10 -4 6 3 10 8 10 11 0 2 -4 4 -10 4 -5 0 -10
-5 -10 -11z"/>
<path d="M2943 723 c-18 -6 -16 -23 1 -23 17 0 30 16 19 23 -5 2 -14 2 -20 0z"/>
<path d="M3568 703 c7 -3 16 -2 19 1 4 3 -2 6 -13 5 -11 0 -14 -3 -6 -6z"/>
<path d="M840 866 c0 -2 7 -6 15 -10 8 -3 15 -1 15 4 0 6 -7 10 -15 10 -8 0
-15 -2 -15 -4z"/>
<path d="M4662 1015 c-6 -14 -9 -32 -5 -40 3 -9 -2 -22 -13 -30 -22 -17 -15
-19 20 -5 18 6 27 19 32 45 3 20 12 35 20 35 8 0 14 5 14 10 0 6 -13 10 -28
10 -21 0 -32 -7 -40 -25z"/>
<path d="M4744 998 c-29 -34 -55 -94 -48 -111 5 -14 8 -13 25 1 10 9 19 27 19
39 0 13 5 23 10 23 6 0 10 7 10 15 0 8 5 15 10 15 6 0 10 9 10 20 0 26 -12 25
-36 -2z"/>
<path d="M4667 847 c-9 -11 -17 -29 -17 -38 0 -10 -6 -19 -12 -22 -10 -3 -8
-9 4 -23 21 -21 27 -17 30 22 1 16 9 34 17 40 9 7 11 16 5 27 -8 14 -11 13
-27 -6z"/>
<path d="M4728 813 c6 -2 18 -2 25 0 6 3 1 5 -13 5 -14 0 -19 -2 -12 -5z"/>
</g>
</svg>
