<?xml version="1.0" standalone="no"?>
<!DOCTYPE svg PUBLIC "-//W3C//DTD SVG 20010904//EN"
 "http://www.w3.org/TR/2001/REC-SVG-20010904/DTD/svg10.dtd">
<svg version="1.0" xmlns="http://www.w3.org/2000/svg"
 width="480.000000pt" height="640.000000pt" viewBox="0 0 480.000000 640.000000"
 preserveAspectRatio="xMidYMid meet">

<g transform="translate(0.000000,640.000000) scale(0.100000,-0.100000)"
fill="#000000" stroke="none">
<path d="M1984 6203 c3 -109 9 -256 12 -328 7 -155 -7 -299 -33 -328 -45 -49
-44 -49 -537 -48 -325 1 -491 5 -562 15 -95 12 -252 9 -324 -8 -21 -5 -276
-13 -477 -15 l-63 -1 0 -1803 0 -1803 688 -2 687 -2 31 -57 c17 -32 41 -88 55
-126 13 -37 27 -67 31 -67 4 0 11 -18 14 -40 4 -22 11 -43 15 -46 5 -3 9 -14
9 -26 0 -23 39 -158 50 -173 4 -5 10 -26 13 -46 6 -40 45 -87 94 -111 24 -12
35 -13 54 -3 26 13 99 9 99 -6 0 -5 -16 -9 -36 -9 -38 0 -74 -15 -74 -30 0 -6
7 -10 15 -10 8 0 15 -4 15 -10 0 -5 -4 -10 -10 -10 -5 0 -10 -7 -10 -15 0 -23
26 -18 48 10 32 40 26 43 180 -104 42 -40 78 -81 80 -90 1 -9 9 -77 17 -151
40 -390 90 -544 194 -606 16 -10 27 -23 24 -30 -3 -8 5 -15 19 -18 22 -5 305
-17 361 -16 15 0 27 -3 27 -8 0 -4 17 -9 37 -10 35 -3 70 -20 47 -23 -22 -4
-53 -6 -111 -7 -60 -2 -83 -15 -45 -26 9 -3 107 -2 217 2 154 6 206 5 225 -5
20 -10 207 -13 883 -13 l857 0 0 135 c0 101 -3 135 -12 136 -35 1 -217 -3
-248 -7 -19 -2 -134 -6 -255 -10 -121 -3 -249 -11 -285 -18 -36 -7 -109 -14
-163 -15 l-98 -2 6 38 c4 21 10 52 15 68 5 17 12 68 15 115 4 47 9 99 12 115
3 17 7 121 10 233 l5 202 24 0 c17 0 28 8 37 28 6 15 20 36 29 46 12 13 15 23
8 30 -5 5 -10 16 -10 23 0 10 4 11 18 2 31 -19 78 12 85 56 7 45 -1 121 -18
160 -42 94 -74 176 -80 206 -4 19 -11 36 -16 39 -11 7 -11 41 -1 200 8 136 22
173 72 187 31 8 40 20 40 56 0 15 4 27 9 27 5 0 11 9 14 21 3 12 10 18 16 15
6 -4 4 9 -4 28 -20 48 -19 82 4 103 20 20 36 60 32 81 -1 8 14 48 35 90 20 43
41 87 47 99 5 12 7 50 4 84 -4 52 -1 71 19 115 13 29 24 59 24 66 0 7 11 30
25 50 28 41 31 64 14 102 -9 20 -9 28 4 41 22 21 40 92 32 124 -3 14 -10 48
-15 74 -10 52 -62 132 -92 142 -10 4 -18 10 -18 14 0 5 -13 11 -30 15 -21 4
-30 11 -30 26 0 35 -33 98 -58 109 -31 15 -55 14 -49 -1 20 -49 40 -119 34
-124 -3 -3 -17 7 -31 22 -13 16 -20 31 -15 35 11 6 -26 39 -62 56 -19 8 -28
22 -33 47 -4 20 -11 36 -16 36 -6 0 -10 7 -10 16 0 21 -41 104 -51 104 -4 0
-27 16 -50 36 -24 20 -54 40 -66 45 -51 19 -16 59 68 79 79 18 162 9 233 -24
53 -25 65 -27 130 -21 74 7 114 25 156 70 24 25 26 26 126 20 83 -4 105 -2
117 10 9 8 20 15 26 15 14 0 14 -17 1 -22 -18 -6 -16 -159 3 -193 29 -52 18
-215 -15 -215 -12 0 -10 -155 3 -184 10 -20 8 -30 -10 -59 -26 -43 -30 -159
-6 -183 15 -15 24 -16 198 -15 l97 1 0 217 0 218 -55 22 c-31 13 -67 23 -80
23 -14 0 -25 4 -25 9 0 5 -14 11 -30 15 -25 5 -30 10 -30 34 0 27 3 30 46 36
25 3 58 14 72 25 15 10 44 24 65 30 l37 13 0 304 c0 251 -3 308 -14 320 -8 8
-19 14 -24 14 -5 0 -23 14 -41 30 -50 48 -39 120 29 176 16 14 27 31 23 37 -4
6 0 8 10 4 16 -6 17 18 17 292 l0 299 -35 16 c-19 9 -39 25 -45 36 -25 46 -1
117 50 147 l30 17 0 323 0 323 -24 9 c-47 19 -51 94 -6 131 l29 25 1 128 0
127 -200 0 -199 0 2 -122 c1 -68 5 -127 9 -133 15 -25 17 -97 5 -175 -23 -142
1 -579 37 -678 13 -36 14 -57 6 -114 -6 -38 -15 -78 -20 -88 -12 -23 -13 -63
-1 -75 5 -6 11 -37 14 -70 3 -33 7 -69 9 -80 2 -16 -11 -27 -66 -55 -43 -22
-72 -44 -77 -57 -5 -13 -15 -23 -24 -23 -8 0 -15 -4 -15 -10 0 -25 -27 -7 -39
26 -15 41 -67 104 -87 104 -7 0 -17 6 -21 13 -4 6 -26 24 -48 39 -22 15 -46
37 -53 48 -7 11 -19 20 -27 20 -8 0 -18 12 -21 28 -4 15 -17 38 -29 52 -22 25
-49 69 -61 103 -3 9 -10 17 -14 17 -5 0 -19 17 -31 38 -28 44 -38 58 -61 80
-10 9 -18 20 -18 25 0 22 -67 63 -240 148 -107 52 -110 52 -110 24 0 -14 -4
-25 -10 -25 -5 0 -9 16 -7 35 1 23 7 34 16 32 8 -1 18 10 22 28 12 45 32 185
32 225 0 65 -56 225 -106 305 -22 36 -139 145 -155 145 -4 0 -13 5 -20 12 -9
9 -82 40 -82 34 0 -1 9 -26 20 -56 11 -30 20 -76 20 -102 0 -46 -2 -48 -37
-63 -44 -18 -48 -14 -57 61 -16 136 -36 184 -77 184 -19 0 -19 -1 1 -41 13
-25 23 -68 26 -112 3 -40 7 -87 9 -104 l4 -33 -49 0 c-57 0 -97 -16 -105 -40
-8 -25 4 -48 27 -56 11 -3 17 -12 14 -19 -3 -9 0 -12 10 -8 7 3 14 0 14 -6 0
-6 -5 -11 -11 -11 -5 0 -7 -5 -4 -10 4 -6 1 -9 -6 -8 -6 2 -14 -3 -16 -9 -3
-8 3 -13 14 -13 17 -1 17 -1 1 -11 -26 -15 -22 -26 12 -38 17 -5 30 -15 30
-20 0 -16 -57 -13 -63 3 -4 9 -14 12 -26 9 -15 -4 -22 1 -27 21 -8 33 -1 42
19 22 26 -26 27 4 1 59 -13 28 -23 56 -24 63 0 7 -7 15 -15 18 -8 4 -15 10
-15 16 0 5 -6 16 -12 23 -14 15 -21 24 -56 69 -13 18 -22 23 -22 14 0 -9 9
-27 21 -42 12 -15 19 -35 16 -46 -3 -10 2 -28 10 -39 19 -29 9 -26 -22 5 -26
26 -49 25 -38 -1 3 -9 -1 -15 -10 -15 -8 0 -18 -6 -21 -12 -5 -10 -7 -10 -12
0 -3 6 -15 12 -27 12 -25 1 -116 82 -99 88 7 2 12 16 12 32 0 16 6 31 13 33 9
4 9 6 0 6 -7 1 -10 8 -6 17 5 13 7 13 14 2 6 -9 9 -7 9 10 0 13 6 22 16 22 10
0 14 5 10 15 -5 13 -2 14 17 4 21 -12 21 -11 7 6 -14 17 -13 18 3 12 11 -4 31
-10 45 -13 22 -5 24 -3 12 6 -12 9 -9 11 17 6 20 -3 33 -1 37 7 3 9 7 8 15 -3
10 -13 11 -13 11 0 0 13 1 13 10 0 8 -12 10 -12 10 5 0 36 -12 64 -29 67 -23
5 40 38 74 38 18 0 25 5 25 19 0 10 3 33 6 50 l7 31 -443 0 -442 0 6 -197z
m1103 -199 c-3 -3 -12 -4 -19 -1 -8 3 -5 6 6 6 11 1 17 -2 13 -5z m-139 -24
c-2 -10 2 -19 7 -20 6 0 10 5 10 12 0 8 24 12 80 11 99 -1 114 -3 98 -10 -7
-2 -13 -18 -13 -34 0 -19 -5 -29 -15 -29 -8 0 -15 5 -15 10 0 6 -8 5 -19 -2
-15 -9 -23 -9 -35 1 -8 7 -20 10 -26 6 -5 -3 -10 -1 -10 5 0 8 -6 8 -20 0 -11
-6 -25 -8 -30 -5 -5 3 -11 1 -15 -5 -3 -5 -13 -10 -21 -10 -10 0 -13 7 -8 24
3 13 1 27 -6 31 -8 5 -8 10 1 21 17 21 41 17 37 -6z m-483 -30 c3 -5 1 -10 -4
-10 -6 0 -11 5 -11 10 0 6 2 10 4 10 3 0 8 -4 11 -10z m87 -108 c9 -7 23 -19
31 -26 7 -7 28 -17 46 -21 18 -4 30 -9 28 -12 -3 -2 -23 0 -44 6 -42 11 -95
53 -125 98 -29 44 -21 47 15 6 17 -21 40 -44 49 -51z m225 16 c-3 -8 -6 -5 -6
6 -1 11 2 17 5 13 3 -3 4 -12 1 -19z m-307 -55 c0 -39 -12 -43 -28 -8 -22 47
-11 90 14 57 7 -9 14 -32 14 -49z m160 -53 c0 -5 -2 -10 -4 -10 -3 0 -8 5 -11
10 -3 6 -1 10 4 10 6 0 11 -4 11 -10z m230 -10 c0 -5 -5 -10 -11 -10 -5 0 -7
5 -4 10 3 6 8 10 11 10 2 0 4 -4 4 -10z m-390 -214 c17 -39 33 -80 35 -93 2
-21 14 -39 53 -81 6 -7 12 -16 12 -20 0 -4 -21 16 -45 43 -36 40 -45 46 -45
29 0 -11 7 -29 15 -40 8 -10 15 -28 15 -39 0 -11 7 -29 15 -39 25 -33 17 -41
-9 -11 -27 32 -61 126 -72 198 -3 26 -10 49 -14 52 -11 7 -36 -25 -50 -65 -11
-31 -9 -41 14 -92 40 -88 48 -110 53 -147 2 -19 10 -43 18 -55 20 -28 19 -46
-2 -46 -18 0 -150 -64 -168 -81 -16 -16 -25 -10 -25 16 0 16 11 35 27 49 l26
23 -35 -1 c-50 -2 -65 -19 -70 -77 -3 -28 -12 -56 -19 -61 -10 -7 -8 -8 9 -5
28 6 28 4 -3 -27 -14 -14 -25 -20 -25 -12 0 7 -6 26 -14 42 -17 36 -30 102
-17 89 5 -6 11 -19 13 -29 7 -39 28 -29 28 13 0 26 9 55 24 79 37 59 39 76 16
126 -11 25 -20 54 -20 64 0 11 -6 25 -14 31 -24 20 -44 -25 -48 -106 -3 -75
-13 -93 -24 -45 -12 50 -55 132 -76 143 -15 8 -19 8 -13 0 5 -8 -1 -10 -20 -5
-25 6 -26 5 -16 -14 6 -12 16 -24 21 -27 12 -8 13 -62 1 -69 -5 -3 -14 14 -20
39 -8 34 -16 45 -31 45 -17 0 -18 -2 -4 -27 7 -16 14 -34 14 -40 0 -7 5 -13
10 -13 6 0 10 -7 10 -15 0 -8 -7 -15 -15 -15 -8 0 -15 -7 -15 -15 0 -8 -3 -15
-7 -15 -5 0 -16 -14 -25 -30 l-17 -30 -33 19 c-18 11 -49 22 -68 26 l-35 6 34
-30 c18 -17 38 -31 42 -31 5 0 9 -4 9 -10 0 -17 -14 -11 -43 16 -16 14 -31 23
-35 19 -4 -4 1 -13 11 -20 12 -8 14 -15 8 -20 -6 -3 -11 -1 -11 5 0 7 -6 10
-14 7 -8 -3 -31 3 -51 14 -41 22 -71 12 -38 -12 10 -8 25 -23 33 -33 14 -18
13 -18 -10 -12 -23 6 -23 6 3 -9 l28 -16 -26 -25 c-14 -13 -30 -24 -34 -24 -4
0 -14 -12 -21 -26 -11 -20 -20 -25 -42 -22 -41 6 -43 8 136 -87 42 -22 76 -45
76 -52 0 -7 -3 -13 -8 -13 -4 0 -19 -11 -34 -24 -14 -14 -29 -22 -33 -18 -4 4
-28 12 -53 18 -26 7 -72 19 -102 28 -30 9 -70 19 -87 22 -18 4 -33 10 -33 14
0 3 27 35 60 71 33 35 60 60 60 56 0 -4 11 3 25 17 14 14 24 33 24 43 -1 17
-2 17 -6 1 -2 -10 -8 -18 -13 -18 -17 0 -19 17 -5 36 8 10 15 31 15 46 0 20
12 37 48 65 26 21 49 40 52 43 3 3 22 16 42 30 21 14 38 28 38 31 0 4 12 14
26 24 22 14 28 15 35 4 8 -12 11 -12 18 1 5 8 8 17 5 22 -10 15 159 164 232
205 12 6 39 15 60 19 22 4 51 13 66 20 15 8 36 14 48 14 11 0 20 5 20 10 0 6
6 10 13 10 19 0 67 43 68 60 1 8 4 2 8 -15 5 -16 23 -61 41 -99z m40 74 c0 -5
-5 -10 -11 -10 -5 0 -7 5 -4 10 3 6 8 10 11 10 2 0 4 -4 4 -10z m970 -332 c11
-12 23 -19 26 -15 3 3 20 -21 36 -54 17 -33 27 -63 24 -66 -3 -4 -6 -1 -6 5 0
7 -14 12 -32 12 -29 0 -30 -1 -15 -18 17 -18 23 -53 11 -65 -6 -5 -13 -1 -47
29 -7 5 -26 19 -44 29 -41 24 -48 42 -23 57 13 9 20 24 20 45 0 37 9 63 21 63
4 0 17 -10 29 -22z m108 -50 c17 -35 19 -94 3 -84 -5 3 -11 20 -13 38 -3 18
-8 41 -13 51 -11 25 10 21 23 -5z m-810 -33 c-3 -3 -9 2 -12 12 -6 14 -5 15 5
6 7 -7 10 -15 7 -18z m-187 -9 c8 4 10 3 5 -4 -8 -14 -2 -26 44 -83 49 -61 85
-95 131 -126 45 -30 47 -33 17 -25 -53 13 -185 121 -170 137 4 5 -1 5 -10 2
-12 -4 -15 -2 -11 10 3 8 2 18 -3 22 -11 7 -54 78 -54 88 0 3 9 -2 19 -11 11
-10 25 -15 32 -10z m831 -76 c18 -11 29 -20 23 -21 -5 -1 -16 -2 -22 -3 -15
-1 -17 -13 -8 -41 4 -11 8 -37 10 -58 2 -26 12 -48 31 -68 15 -16 23 -29 17
-29 -6 0 -13 6 -16 13 -3 7 -35 27 -72 45 -49 24 -65 37 -61 48 3 9 7 34 7 57
1 23 4 33 6 23 3 -11 11 -26 19 -34 12 -11 14 -6 14 37 0 28 4 51 10 51 5 0
24 -9 42 -20z m-1600 -32 c-7 -7 -12 -8 -12 -2 0 14 12 26 19 19 2 -3 -1 -11
-7 -17z m1413 12 c-3 -5 0 -10 7 -11 10 0 10 -2 0 -6 -6 -2 -10 -8 -7 -13 3
-4 -2 -10 -10 -14 -9 -3 -15 0 -15 9 0 8 5 15 10 15 6 0 9 3 9 8 -2 12 1 22 7
22 3 0 2 -4 -1 -10z m-635 -24 c0 -3 -4 -8 -10 -11 -5 -3 -10 -1 -10 4 0 6 5
11 10 11 6 0 10 -2 10 -4z m-750 -16 c12 -8 9 -10 -13 -10 -16 0 -26 4 -22 10
8 12 16 12 35 0z m587 -12 c-3 -13 -8 -38 -12 -55 -9 -39 8 -44 34 -11 12 14
20 17 25 10 3 -6 -8 -22 -27 -36 -25 -19 -44 -25 -85 -24 -49 0 -52 1 -46 21
4 12 10 24 15 27 4 3 13 18 19 34 6 16 13 26 17 22 3 -3 12 3 20 14 20 28 47
26 40 -2z m-540 -24 c-3 -3 -12 -4 -19 -1 -8 3 -5 6 6 6 11 1 17 -2 13 -5z
m1699 -71 c-10 -10 -19 5 -10 18 6 11 8 11 12 0 2 -7 1 -15 -2 -18z m-1376
-55 c0 -10 4 -18 9 -18 5 0 12 -8 16 -17 11 -29 15 -302 5 -308 -6 -4 -10 -1
-10 4 0 6 -7 11 -15 11 -12 0 -13 4 -7 18 18 32 -1 132 -24 132 -13 0 -14 12
-8 85 7 93 11 127 13 135 3 10 21 -26 21 -42z m1355 13 c-7 -22 -35 -18 -35 6
0 8 4 12 9 8 5 -3 13 0 16 6 11 16 18 3 10 -20z m-1301 3 c9 -24 2 -26 -12 -4
-7 11 -8 20 -3 20 5 0 12 -7 15 -16z m736 12 c0 -11 -19 -15 -25 -6 -3 5 1 10
9 10 9 0 16 -2 16 -4z m938 -23 c-10 -2 -18 -13 -18 -23 0 -13 -5 -17 -20 -13
-11 3 -20 9 -20 14 0 11 38 28 60 27 10 0 9 -2 -2 -5z m-1683 -22 c3 -5 1 -12
-5 -16 -5 -3 -10 1 -10 9 0 18 6 21 15 7z m1266 -13 l26 -3 -22 -110 c-20
-104 -22 -107 -26 -62 -2 26 -1 47 3 47 5 0 8 10 7 23 0 19 -1 20 -8 4 -4 -10
-11 -19 -16 -20 -6 -1 -9 -10 -7 -20 1 -10 -3 -26 -8 -35 -9 -14 -10 -12 -4 8
3 14 3 22 -2 17 -4 -4 -11 -29 -15 -55 -3 -26 -10 -62 -14 -80 -7 -29 -5 -34
14 -39 11 -3 21 -12 21 -20 0 -10 -7 -12 -22 -8 -16 4 -19 3 -9 -3 8 -6 11
-18 7 -30 -9 -26 10 -38 24 -15 9 16 10 15 9 -7 -2 -40 0 -50 12 -50 16 0 39
26 39 45 0 9 5 25 11 36 5 11 13 39 18 62 8 47 6 46 111 31 49 -6 109 -35 118
-56 6 -14 30 -9 36 7 3 8 13 15 23 15 12 0 6 -8 -19 -26 -31 -22 -39 -36 -49
-81 -11 -46 -10 -56 2 -64 11 -7 11 -9 -3 -9 -10 0 -19 -8 -19 -17 -1 -10 -3
-27 -5 -38 -2 -11 -6 -54 -9 -95 -6 -87 -19 -104 -80 -114 -40 -5 -42 -4 -93
54 -29 32 -62 60 -74 62 -21 3 -23 8 -21 63 1 33 7 61 13 63 20 7 9 35 -28 72
-70 67 -73 145 -13 319 18 53 31 107 29 123 -3 19 -1 25 6 19 6 -5 23 -11 37
-13z m-1643 -10 c-6 -18 -28 -21 -28 -4 0 9 7 16 16 16 9 0 14 -5 12 -12z
m-454 -74 c18 -17 19 -24 10 -48 -9 -23 -21 -20 -27 7 -2 12 -8 30 -12 40 -9
21 8 22 29 1z m1493 -6 c-3 -8 -6 -5 -6 6 -1 11 2 17 5 13 3 -3 4 -12 1 -19z
m-1623 -4 c12 -5 13 -10 5 -25 -7 -14 -6 -19 3 -20 10 0 10 -2 0 -6 -16 -6 12
-22 77 -43 43 -14 44 -14 66 14 19 24 23 25 29 11 9 -25 7 -37 -4 -30 -6 4
-19 4 -28 0 -16 -6 -16 -7 1 -16 9 -6 17 -15 17 -21 0 -7 -4 -7 -12 0 -7 5
-39 15 -70 22 -32 6 -60 16 -63 21 -4 5 -13 9 -22 9 -8 0 -29 6 -46 14 -18 7
-45 19 -62 26 l-30 13 42 11 c23 6 45 14 49 19 9 9 27 9 48 1z m536 -39 c16
-19 0 -19 -26 0 -16 12 -16 14 -3 15 9 0 22 -7 29 -15z m2492 -17 c-9 -9 -15
-9 -24 0 -9 9 -7 12 12 12 19 0 21 -3 12 -12z m-2145 -45 c-3 -10 -5 -4 -5 12
0 17 2 24 5 18 2 -7 2 -21 0 -30z m2088 17 c-9 -15 -87 -51 -94 -44 -3 4 -1 8
4 11 6 2 26 12 45 23 39 21 54 25 45 10z m-2081 -108 c4 -6 -3 -8 -16 -5 -47
10 -48 11 -25 37 l22 25 6 -24 c4 -13 10 -28 13 -33z m1330 -14 c-4 -18 -7
-36 -6 -40 1 -3 -5 -9 -13 -12 -9 -3 -15 1 -15 9 0 8 5 15 10 15 6 0 10 9 10
19 0 24 11 54 17 47 3 -2 1 -20 -3 -38z m533 36 c-3 -3 -12 -4 -19 -1 -8 3 -5
6 6 6 11 1 17 -2 13 -5z m449 -29 c36 -27 59 -67 79 -135 16 -52 18 -76 16
-180 l-2 -75 -20 25 c-12 14 -32 38 -45 54 -13 17 -24 33 -24 37 0 4 -25 19
-56 34 -44 21 -54 30 -49 43 4 9 10 27 12 39 3 12 14 25 24 28 17 6 26 39 19
70 -1 6 -5 27 -7 48 -7 45 6 48 53 12z m-2596 -14 c0 -5 -9 -11 -21 -14 -16
-4 -18 -3 -8 9 13 16 29 19 29 5z m275 -44 c28 -5 52 -12 55 -14 2 -2 -26 -33
-63 -68 -66 -62 -118 -88 -147 -70 -15 10 -90 -28 -87 -44 1 -8 -4 -16 -10
-18 -7 -3 -13 3 -13 12 0 9 -6 31 -14 48 -8 18 -16 46 -18 64 -4 31 -3 32 26
26 17 -3 35 -10 41 -14 15 -15 67 -10 87 8 18 16 18 16 12 0 -5 -14 0 -17 26
-17 18 0 29 -4 25 -10 -13 -21 31 5 63 37 22 22 28 33 17 33 -8 0 -15 4 -15 9
0 5 -8 8 -17 7 -10 -2 -21 2 -25 7 -4 7 -11 7 -21 -2 -13 -10 -15 -9 -10 9 4
15 10 19 22 14 9 -4 39 -11 66 -17z m-883 -16 c19 -23 110 -44 176 -41 66 3
68 3 95 -24 13 -13 32 -23 41 -23 17 2 125 -72 126 -86 0 -4 -13 -13 -30 -18
-16 -6 -30 -15 -30 -19 0 -5 -10 -12 -22 -15 -26 -9 -68 -53 -68 -71 0 -8 -4
-14 -10 -14 -5 0 -10 -11 -10 -25 0 -13 -7 -28 -16 -33 -14 -8 -15 -14 -5 -43
8 -25 8 -34 0 -40 -7 -4 -9 -14 -6 -23 4 -11 1 -16 -11 -16 -10 0 -24 -6 -31
-12 -10 -11 -14 -10 -22 4 -5 9 -35 31 -67 49 -31 18 -69 44 -83 58 -15 15
-37 33 -49 41 -58 39 -75 88 -67 200 5 75 18 120 45 153 19 22 24 21 44 -2z
m865 -33 c-3 -8 -6 -5 -6 6 -1 11 2 17 5 13 3 -3 4 -12 1 -19z m1822 -108 c64
-65 129 -135 146 -153 16 -19 35 -33 42 -30 10 4 13 -9 13 -51 0 -43 -3 -56
-15 -56 -18 0 -19 14 -3 39 6 10 8 27 4 37 -6 16 -9 14 -23 -14 -14 -29 -43
-45 -43 -22 0 31 -92 82 -119 65 -6 -3 -31 0 -57 6 -46 12 -48 12 -71 -17 -17
-21 -25 -26 -31 -16 -8 12 11 182 22 201 4 5 2 12 -4 16 -5 3 -10 28 -10 54 0
89 10 85 149 -59z m-1632 13 c-3 -5 -1 -30 3 -58 5 -28 4 -54 -1 -59 -5 -6 -9
8 -9 35 0 25 -5 50 -11 56 -12 12 -4 33 12 33 6 0 8 -3 6 -7z m-357 -53 c0 -5
-4 -10 -10 -10 -5 0 -10 5 -10 10 0 6 5 10 10 10 6 0 10 -4 10 -10z m1195 -16
c-21 -22 -79 -51 -116 -59 -24 -6 -29 -3 -29 13 0 38 41 60 113 61 45 1 47 0
32 -15z m1195 -15 l35 -20 -32 4 c-27 3 -33 0 -33 -15 0 -13 -8 -18 -27 -19
-16 -1 -32 0 -38 2 -5 1 -20 3 -32 3 -13 1 -23 4 -23 7 0 14 31 31 46 25 23
-9 54 2 54 20 0 18 8 17 50 -7z m-985 -8 c3 -5 1 -12 -5 -16 -5 -3 -10 1 -10
9 0 18 6 21 15 7z m-403 -31 c4 -24 1 -30 -14 -30 -18 0 -23 16 -12 44 10 25
21 19 26 -14z m-597 -31 c-4 -12 -2 -19 6 -19 7 0 10 -2 8 -5 -11 -10 -49 9
-49 24 0 23 9 31 26 24 9 -3 12 -13 9 -24z m-495 -4 c0 -24 -9 -30 -37 -26 -7
1 -13 -6 -13 -15 0 -10 -7 -25 -16 -35 -17 -19 -44 -15 -44 6 0 7 -7 15 -15
19 -8 3 -15 10 -15 16 0 6 7 4 16 -5 22 -21 58 -15 62 10 4 19 39 54 55 55 4
0 7 -11 7 -25z m55 -11 c-18 -13 -20 -13 -23 2 -5 21 19 37 33 23 7 -7 4 -15
-10 -25z m2555 26 c0 -5 -5 -10 -11 -10 -5 0 -7 5 -4 10 3 6 8 10 11 10 2 0 4
-4 4 -10z m-2797 -8 c-12 -4 -31 -19 -43 -35 -12 -15 -25 -25 -29 -22 -10 5
-51 -41 -51 -57 0 -6 -3 -9 -6 -5 -3 3 2 29 11 57 19 57 36 69 100 68 28 0 34
-2 18 -6z m2553 -25 c4 -4 0 -7 -10 -7 -9 0 -19 -7 -22 -15 -4 -8 -15 -15 -25
-15 -16 0 -17 3 -7 25 8 18 18 24 34 22 13 -2 26 -6 30 -10z m-2531 -24 c-15
-75 -14 -73 -51 -73 -19 0 -41 -6 -49 -13 -18 -19 -2 -41 24 -34 12 3 21 1 21
-4 0 -5 -7 -9 -15 -9 -8 0 -15 -4 -15 -10 0 -5 12 -10 28 -10 21 0 24 -2 12
-10 -8 -6 -27 -7 -42 -4 -20 4 -27 1 -31 -13 -2 -10 -4 -4 -4 12 -1 17 -2 35
-4 40 -10 34 32 115 59 115 5 0 15 7 22 15 18 21 49 19 45 -2z m1175 -37 c0
-43 -25 -68 -35 -35 -5 15 -2 26 9 34 18 14 22 30 4 19 -7 -4 -8 -3 -4 4 14
22 26 12 26 -22z m40 18 c0 -8 -5 -12 -10 -9 -6 4 -8 11 -5 16 9 14 15 11 15
-7z m-652 -6 c-3 -7 -18 -14 -36 -16 -17 -2 -36 -10 -42 -18 -7 -8 -18 -14
-24 -14 -6 0 -22 -9 -36 -20 -32 -25 -37 -25 -42 4 -7 38 5 48 61 49 28 1 51
5 51 9 0 4 12 9 28 11 15 2 31 5 35 6 5 0 7 -5 5 -11z m152 -3 c-7 -9 -15 -13
-17 -11 -7 7 7 26 19 26 6 0 6 -6 -2 -15z m1469 -22 c0 -29 -2 -33 -8 -18 -7
18 -4 55 5 55 2 0 4 -17 3 -37z m-939 -28 c0 -18 -1 -18 -16 3 -8 12 -12 27
-8 33 8 14 24 -8 24 -36z m-144 9 c1 -9 0 -13 -3 -10 -3 3 -12 -1 -20 -9 -21
-21 -7 -52 30 -70 32 -15 66 -55 47 -55 -5 0 -10 3 -10 8 0 4 -20 20 -45 35
-25 16 -45 33 -45 37 0 5 -2 15 -6 23 -3 8 5 26 18 40 24 27 30 27 34 1z m949
16 c-3 -5 -10 -10 -16 -10 -5 0 -9 5 -9 10 0 6 7 10 16 10 8 0 12 -4 9 -10z
m95 -10 c-24 -15 -37 -11 -16 5 11 8 22 12 25 9 3 -3 -1 -9 -9 -14z m-1260
-45 c0 -8 -6 -15 -14 -15 -8 0 -17 -6 -19 -12 -3 -7 -6 -1 -6 15 -1 21 4 27
19 27 11 0 20 -7 20 -15z m1110 -10 c0 -8 -4 -15 -9 -15 -13 0 -22 16 -14 24
11 11 23 6 23 -9z m-745 -5 c3 -5 1 -10 -5 -10 -6 0 -16 -11 -22 -25 -6 -14
-17 -25 -25 -25 -13 0 -13 20 2 53 8 18 40 23 50 7z m-562 -7 c-7 -2 -19 -2
-25 0 -7 3 -2 5 12 5 14 0 19 -2 13 -5z m1254 1 c-3 -3 -12 -4 -19 -1 -8 3 -5
6 6 6 11 1 17 -2 13 -5z m-1053 -19 c-4 -9 -18 -14 -38 -14 -23 1 -25 3 -8 6
12 2 22 9 22 14 0 5 7 9 15 9 9 0 12 -6 9 -15z m389 0 c4 -8 2 -17 -3 -20 -6
-4 -10 3 -10 14 0 25 6 27 13 6z m687 -32 c13 -12 8 -13 -33 -10 -53 5 -69 14
-47 27 18 11 60 2 80 -17z m-661 -38 c1 -5 -6 -2 -15 7 -10 9 -13 21 -8 29 5
9 9 8 15 -7 4 -10 8 -23 8 -29z m-1476 28 c-7 -2 -21 -2 -30 0 -10 3 -4 5 12
5 17 0 24 -2 18 -5z m1200 -30 c-7 -2 -19 -2 -25 0 -7 3 -2 5 12 5 14 0 19 -2
13 -5z m153 -11 c-2 -4 17 -29 44 -55 47 -47 48 -47 54 -22 5 18 13 25 31 25
28 0 31 -7 11 -29 -8 -9 -11 -24 -7 -35 6 -16 9 -14 24 15 9 19 17 27 17 18 0
-9 14 -35 30 -57 17 -23 30 -45 30 -49 0 -5 9 -19 19 -33 20 -25 89 -39 101
-19 4 6 20 4 43 -6 39 -16 77 -20 77 -7 0 4 18 6 40 4 31 -3 40 -1 40 11 0 30
20 28 26 -2 6 -29 15 -36 38 -32 5 1 13 -4 17 -11 7 -10 9 -9 9 5 0 20 16 23
23 5 3 -7 6 3 7 22 0 29 2 32 11 17 6 -9 9 -25 8 -35 -3 -29 0 -32 26 -22 22
8 26 6 31 -15 3 -14 10 -25 14 -25 5 0 15 -6 22 -12 34 -32 61 -52 55 -41 -8
12 1 43 12 43 4 0 13 -16 20 -35 7 -21 17 -33 23 -29 7 4 8 2 4 -4 -6 -10 9
-34 45 -71 9 -9 19 -25 23 -36 3 -11 20 -36 37 -55 17 -19 37 -50 45 -67 9
-21 24 -35 40 -39 l27 -7 -7 -78 c-8 -98 -19 -129 -46 -129 -11 0 -20 -2 -20
-5 0 -10 26 -61 38 -74 7 -7 10 -16 7 -20 -4 -3 -13 3 -20 14 -8 11 -26 32
-41 47 -27 26 -28 26 -44 8 -21 -25 -40 -9 -40 35 0 16 -7 39 -15 49 -11 15
-15 16 -15 5 0 -8 5 -20 10 -25 7 -7 0 -21 -20 -45 -16 -19 -34 -40 -40 -46
-6 -7 -19 -13 -29 -13 -10 0 -24 -7 -31 -15 -10 -12 -10 -15 3 -15 9 0 18 4
21 9 11 17 41 5 44 -17 3 -23 -21 -31 -33 -12 -3 5 -12 7 -19 4 -8 -3 -17 -1
-21 5 -10 17 -48 14 -42 -3 4 -10 0 -13 -14 -11 -12 2 -38 -3 -58 -11 -43 -17
-234 -24 -266 -10 -28 13 -105 18 -105 7 0 -9 -31 -17 -102 -28 -28 -4 -38
-10 -38 -24 0 -12 -5 -16 -15 -13 -10 4 -13 13 -10 24 4 14 -2 19 -32 25 -20
4 -46 13 -57 21 -11 8 -30 14 -42 14 -12 0 -49 14 -82 30 -72 35 -72 35 -65
11 3 -13 11 -17 24 -14 10 3 19 0 19 -6 0 -13 -29 -14 -50 -1 -8 5 -15 19 -15
31 0 12 -5 24 -11 26 -12 4 -25 -42 -27 -94 -1 -39 -3 -40 -28 -10 -22 26 -24
44 -6 50 10 4 10 7 0 18 -15 16 -17 49 -3 49 6 0 10 5 10 10 0 6 -6 10 -13 10
-30 0 -35 21 -14 57 11 19 16 38 11 41 -5 4 -15 19 -23 35 -8 15 -41 52 -73
83 l-57 55 -3 142 -3 142 -30 6 c-16 4 -22 7 -13 8 15 1 48 36 48 52 0 14 -33
19 -46 8 -9 -8 -14 -8 -14 -1 0 6 5 14 10 17 14 9 12 33 -2 38 -7 2 -1 2 15 0
15 -3 40 -11 56 -19 35 -17 47 -62 23 -80 -14 -10 -17 -37 -20 -161 l-4 -149
28 -19 c29 -18 29 -18 11 2 -15 18 -16 26 -6 72 6 29 9 67 7 86 -3 24 0 31 9
28 10 -4 9 3 -2 31 -8 19 -15 37 -15 38 0 2 14 4 30 5 21 2 30 -2 30 -13 0 -8
7 -17 15 -20 8 -4 15 -11 15 -18 0 -12 39 -66 40 -54 0 4 -4 17 -9 31 -5 13
-5 30 -1 37 5 8 5 19 1 25 -5 5 -6 30 -2 55 5 37 10 46 29 48 12 2 22 -1 22
-7 0 -6 -4 -11 -10 -11 -5 0 -10 -4 -10 -10 0 -5 7 -10 15 -10 8 0 15 6 15 14
0 8 3 21 6 29 3 9 -3 17 -18 22 -21 6 -21 8 -4 12 10 3 22 -1 26 -7 4 -7 13
-10 19 -6 6 4 24 0 41 -9 29 -15 30 -15 30 5 0 27 18 26 23 -2 4 -20 4 -19 6
5 1 17 -4 27 -13 27 -9 0 -12 7 -9 20 3 11 10 20 16 20 5 0 3 8 -6 18 -10 10
-17 29 -17 43 0 18 -10 28 -39 42 -20 9 -43 17 -49 17 -7 0 -12 9 -12 20 0 12
-7 20 -16 20 -10 0 -14 -6 -10 -15 9 -24 -63 -23 -77 1 -4 8 -15 14 -22 14 -8
0 -15 4 -15 9 0 5 15 9 33 9 69 -1 227 15 227 23 0 5 9 9 21 9 11 0 18 -3 15
-8z m1207 -11 c4 -4 -15 -6 -42 -3 -50 4 -51 4 -51 -22 0 -16 -6 -26 -14 -26
-8 0 -22 -7 -30 -16 -9 -8 -16 -11 -16 -5 0 6 -8 11 -19 11 -10 0 -24 6 -30
14 -18 21 -2 46 29 46 16 0 32 5 36 11 8 13 122 5 137 -10z m-1060 -10 c4 -18
2 -19 -32 -12 -4 1 20 31 24 31 1 0 5 -9 8 -19z m1524 3 c-3 -3 -12 -4 -19 -1
-8 3 -5 6 6 6 11 1 17 -2 13 -5z m-2146 -21 c52 -26 62 -39 44 -57 -9 -8 -23
-12 -32 -9 -13 5 -14 3 -5 -13 14 -25 -11 -74 -38 -74 -11 0 -20 4 -20 8 0 11
-43 9 -51 -2 -4 -5 -15 -5 -25 -1 -11 4 -25 9 -33 11 -73 15 -140 44 -141 62
0 6 -5 12 -11 12 -14 0 -39 25 -39 39 0 6 11 11 25 11 14 0 25 -5 25 -10 0 -7
6 -7 20 0 31 16 72 8 98 -20 17 -19 24 -22 31 -12 7 11 9 11 14 -2 4 -11 1
-16 -12 -16 -27 0 -31 -10 -11 -30 18 -18 60 -17 60 1 0 5 6 9 14 9 17 0 27
23 17 39 -11 17 -59 41 -82 41 -32 0 -30 19 3 23 74 9 117 6 149 -10z m1869 7
c0 -5 -19 -15 -41 -22 -23 -6 -37 -14 -30 -16 7 -2 4 -11 -10 -23 -24 -21
-105 -22 -103 -1 2 28 5 32 18 32 8 0 17 7 20 16 5 14 16 15 66 10 40 -5 60
-3 60 4 0 5 5 10 10 10 6 0 10 -4 10 -10z m-807 -34 c6 -16 -2 -28 -14 -20
-12 7 -11 34 0 34 5 0 11 -6 14 -14z m-1644 -72 c13 -13 -10 -12 -35 2 l-29
16 30 -7 c16 -4 32 -9 34 -11z m831 6 c22 -7 21 -8 -12 -9 -20 -1 -40 4 -43 9
-7 12 19 12 55 0z m-575 -20 c4 -6 -7 -10 -25 -10 -18 0 -29 4 -25 10 3 6 15
10 25 10 10 0 22 -4 25 -10z m-159 -25 c18 -14 18 -14 -6 -14 -14 0 -34 6 -44
14 -19 14 -19 15 5 15 14 0 34 -7 45 -15z m739 -13 c38 -1 73 -6 78 -11 12
-12 -76 -53 -97 -45 -9 3 -16 10 -16 15 0 13 -38 11 -42 -3 -2 -6 -10 -8 -16
-4 -17 10 -15 26 3 26 18 0 18 4 4 33 -9 19 -8 20 3 6 9 -11 33 -16 83 -17z
m-460 8 c-3 -5 -18 -10 -33 -10 -21 0 -24 2 -12 10 20 13 53 13 45 0z m125
-43 c0 -13 10 -33 23 -45 l23 -22 -3 38 c-3 31 -2 34 7 15 5 -13 18 -23 30
-23 17 0 19 -5 15 -35 -9 -72 -66 -87 -97 -26 -9 19 -24 41 -32 49 -13 13 -13
19 0 44 18 34 34 36 34 5z m1330 -17 c14 -11 21 -20 17 -20 -11 0 -67 29 -67
35 0 11 27 3 50 -15z m-1630 -10 c0 -4 -8 -11 -17 -16 -28 -12 -73 -10 -73 3
0 6 -9 9 -20 6 -13 -3 -20 0 -20 8 0 11 15 13 65 11 36 -2 65 -7 65 -12z m43
3 c-7 -2 -19 -2 -25 0 -7 3 -2 5 12 5 14 0 19 -2 13 -5z m67 -4 c13 -9 12 -10
-2 -5 -10 3 -18 1 -18 -4 0 -15 -33 -50 -47 -50 -7 0 -13 -4 -13 -10 0 -5 -5
-10 -10 -10 -6 0 -22 -12 -35 -26 -15 -16 -31 -24 -40 -20 -9 3 -15 0 -15 -9
0 -9 -10 -15 -24 -15 -28 0 -53 -24 -36 -35 6 -4 17 -4 25 -1 8 3 17 1 20 -4
3 -5 -11 -13 -30 -19 -94 -26 -186 -110 -223 -203 -13 -34 -21 -45 -21 -30 -1
12 -6 22 -11 22 -6 0 -10 -8 -8 -17 3 -15 -4 -18 -42 -16 -66 4 -78 -3 -49
-28 13 -11 37 -28 52 -37 28 -17 33 -42 8 -50 -8 -3 -11 0 -8 6 4 5 0 15 -7
21 -12 10 -13 8 -9 -8 3 -12 1 -21 -6 -21 -6 0 -11 7 -11 15 0 8 -5 15 -10 15
-6 0 -9 3 -9 8 3 20 -3 32 -16 32 -9 0 -18 7 -21 15 -4 8 -15 15 -25 15 -24 0
-26 40 -3 74 18 28 53 40 112 37 41 -2 43 -2 32 18 -14 27 -10 33 45 68 25 15
45 31 45 35 0 3 12 20 28 36 15 16 32 36 38 43 6 8 21 21 34 29 12 8 32 23 43
32 36 29 41 32 68 50 15 10 31 13 39 8 19 -12 134 26 124 41 -7 13 18 11 36
-2z m-309 -89 c-19 -17 -36 -28 -39 -25 -9 8 40 55 57 55 11 0 4 -11 -18 -30z
m256 -36 c-3 -3 -12 -4 -19 -1 -8 3 -5 6 6 6 11 1 17 -2 13 -5z m-51 -62 c-7
-12 -66 -13 -66 -1 0 5 16 9 36 9 19 0 33 -4 30 -8z m254 -91 c0 -5 -7 -11
-15 -15 -15 -5 -20 5 -8 17 9 10 23 9 23 -2z m-388 -52 c3 -20 -1 -36 -11 -47
-14 -14 -13 -15 12 -8 26 6 27 5 17 -15 -7 -12 -10 -32 -7 -45 3 -17 -1 -28
-14 -35 -11 -5 -19 -21 -19 -34 0 -13 -5 -27 -11 -31 -6 -3 -9 -15 -6 -25 4
-13 0 -19 -11 -19 -15 -1 -15 -2 1 -11 21 -12 22 -29 3 -29 -8 0 -27 -11 -42
-25 -15 -14 -33 -25 -40 -25 -7 0 -29 -13 -47 -30 -71 -62 -148 -27 -116 52 7
18 15 35 18 38 11 10 41 72 41 85 0 8 17 34 38 59 20 24 49 65 64 91 20 32 40
51 70 65 56 25 55 25 60 -11z m125 -26 c-3 -10 -5 -4 -5 12 0 17 2 24 5 18 2
-7 2 -21 0 -30z m203 33 c0 -2 -7 -7 -16 -10 -8 -3 -12 -2 -9 4 6 10 25 14 25
6z m-300 -16 c0 -5 -4 -10 -10 -10 -5 0 -10 5 -10 10 0 6 5 10 10 10 6 0 10
-4 10 -10z m269 -100 c6 0 11 -4 11 -9 0 -5 10 -11 23 -14 19 -5 22 -13 23
-62 1 -30 7 -62 14 -70 24 -29 -2 -37 -31 -9 -25 24 -29 35 -29 80 0 29 -5 56
-11 59 -14 10 -18 4 -21 -33 -1 -18 -6 -32 -10 -32 -15 0 -48 65 -48 93 0 16
-9 40 -20 54 -42 53 -18 52 34 -1 30 -31 59 -56 65 -56z m-154 -30 c7 -22 6
-23 -9 -11 -11 9 -16 28 -15 60 1 45 1 45 8 11 4 -19 11 -46 16 -60z m2030 55
c31 -32 31 -33 -2 -37 -27 -3 -28 -5 -34 -78 l-5 -75 -2 85 c-2 76 4 130 14
130 2 0 15 -11 29 -25z m-1965 -62 c0 -2 -4 -3 -9 -3 -16 0 -43 51 -36 68 5
13 11 8 26 -22 10 -22 19 -41 19 -43z m-30 -4 c0 -6 9 -22 20 -36 11 -14 20
-33 20 -42 0 -9 9 -34 20 -56 11 -22 20 -37 20 -33 0 3 16 2 34 -2 26 -6 36
-4 38 6 2 9 8 11 17 4 12 -7 12 -12 3 -23 -9 -10 -25 -13 -57 -9 -37 4 -45 2
-45 -12 0 -18 28 -67 45 -78 6 -3 26 -21 46 -40 54 -51 88 -78 98 -78 15 0 23
-19 16 -39 -3 -11 -23 -23 -50 -31 -25 -7 -45 -17 -45 -21 0 -5 -5 -9 -10 -9
-6 0 -20 -9 -32 -20 -31 -28 -37 -25 -36 18 0 22 -3 49 -7 61 -6 21 -5 22 17
10 12 -7 28 -19 34 -27 6 -8 17 -13 24 -10 10 3 9 8 -4 19 -10 7 -25 21 -35
29 -45 40 -48 41 -47 18 1 -11 -4 -23 -10 -25 -14 -5 -25 34 -18 64 4 13 2 23
-4 23 -6 0 -14 17 -18 38 -8 49 -30 131 -42 162 -13 34 -15 150 -2 150 5 0 10
-5 10 -11z m-150 -26 c0 -5 -4 -14 -9 -21 -6 -10 -10 -9 -14 7 -3 14 0 21 9
21 8 0 14 -3 14 -7z m40 -131 c0 -21 -1 -22 -16 -8 -8 9 -22 16 -30 16 -18 0
-20 76 -1 83 14 5 46 -57 47 -91z m232 15 c-7 -5 -16 -6 -19 -3 -4 3 0 6 7 6
10 0 10 4 -2 18 -30 34 -31 46 -1 17 23 -24 27 -32 15 -38z m4 -72 c-3 -9 0
-15 10 -15 27 0 94 -54 101 -80 3 -14 13 -35 21 -47 22 -34 -7 -30 -38 5 -14
15 -42 40 -62 56 -21 15 -36 32 -33 37 3 4 -1 14 -8 21 -10 9 -11 16 -3 25 15
17 19 16 12 -2z m91 -17 c-3 -8 -6 -5 -6 6 -1 11 2 17 5 13 3 -3 4 -12 1 -19z
m1740 -110 c-7 -137 -25 -197 -59 -198 -5 0 -8 16 -8 35 0 21 -5 35 -12 35 -7
0 -1 8 13 17 23 14 27 25 33 82 7 66 25 141 34 141 3 0 2 -51 -1 -112z m-1585
42 c4 -25 2 -39 -9 -50 -14 -13 -15 -12 -11 16 2 17 -2 36 -9 43 -18 17 -16
32 5 29 11 -2 19 -16 24 -38z m1121 -31 c-13 -13 -26 -18 -34 -14 -9 6 -7 11
6 22 11 7 26 13 34 13 12 0 11 -5 -6 -21z m108 3 c4 -4 9 -35 13 -69 l6 -63
-41 0 -41 0 7 64 c5 56 4 66 -12 76 -15 9 -10 10 22 5 22 -4 43 -10 46 -13z
m-921 -47 c0 -13 7 -26 16 -29 9 -4 14 -13 10 -21 -3 -8 -1 -15 4 -15 6 0 10
-7 10 -15 0 -8 -7 -15 -15 -15 -14 0 -20 -14 -15 -35 2 -5 4 -31 5 -56 2 -26
6 -60 9 -76 6 -25 3 -31 -19 -41 -14 -6 -25 -20 -25 -29 0 -10 -7 -31 -15 -47
-18 -34 -11 -50 15 -36 10 5 29 9 42 9 17 -1 18 -3 6 -6 -27 -7 -21 -21 9 -25
22 -2 16 -7 -35 -24 -34 -12 -62 -19 -62 -15 0 11 15 28 30 35 8 3 3 4 -12 1
-20 -4 -28 -1 -29 10 -1 8 -2 21 -3 28 -1 6 10 22 23 35 23 21 24 26 17 100
-17 183 -18 294 -5 303 18 11 39 -8 39 -36z m820 -72 c0 -7 -4 -13 -10 -13 -5
0 -10 12 -10 28 0 21 2 24 10 12 5 -8 10 -21 10 -27z m-1880 -8 c0 -9 -6 -12
-15 -9 -8 4 -15 10 -15 15 0 5 7 9 15 9 8 0 15 -7 15 -15z m-87 -110 c17 -18
17 -20 2 -23 -25 -5 -56 33 -61 76 l-6 37 23 -35 c13 -19 32 -44 42 -55z m775
-55 c13 -6 21 -14 17 -19 -8 -14 -108 -8 -113 7 -2 6 3 12 12 12 10 0 16 9 16
21 0 20 1 21 23 5 12 -9 32 -21 45 -26z m6 25 c-4 -8 -8 -15 -10 -15 -2 0 -4
7 -4 15 0 8 4 15 10 15 5 0 7 -7 4 -15z m56 6 c0 -6 -4 -13 -10 -16 -5 -3 -10
1 -10 9 0 9 5 16 10 16 6 0 10 -4 10 -9z m510 -14 c0 -13 -3 -27 -7 -30 -11
-12 -31 13 -26 33 7 28 33 25 33 -3z m390 -4 c0 -20 -4 -24 -22 -21 -14 2 -24
11 -26 24 -2 17 2 22 22 22 21 0 26 -5 26 -25z m-1850 -48 c0 -8 -9 -15 -19
-15 -11 0 -23 -5 -27 -11 -3 -6 -15 -8 -26 -6 -11 3 -32 1 -48 -5 -26 -9 -28
-12 -15 -25 8 -8 15 -21 15 -29 0 -8 4 -22 10 -32 28 -49 118 -304 134 -377 8
-42 6 42 -4 98 -10 62 -6 87 15 87 8 0 14 -24 18 -72 7 -91 25 -133 76 -183
31 -30 37 -42 29 -52 -8 -10 -6 -17 8 -28 18 -14 18 -14 -3 -15 -14 0 -23 -6
-23 -15 0 -8 5 -15 11 -15 15 0 41 -28 29 -32 -5 -2 -11 -47 -13 -100 -3 -89
-7 -103 -42 -172 -21 -42 -41 -76 -45 -76 -10 0 -77 94 -85 120 -4 14 -13 28
-19 32 -6 4 -11 34 -11 70 1 68 14 98 71 154 26 26 30 36 25 65 -4 26 -6 29
-9 12 -5 -35 -18 -28 -44 25 -13 26 -26 49 -29 52 -4 3 -8 14 -10 25 -4 18 -7
17 -32 -10 -15 -16 -27 -25 -27 -18 0 6 5 13 11 15 7 2 7 11 -1 30 -9 19 -18
25 -33 23 -23 -5 -36 -15 -18 -15 7 0 9 -5 6 -10 -13 -22 -22 -6 -125 218 -19
39 -37 72 -42 72 -16 0 -7 -81 17 -148 14 -39 22 -77 19 -85 -11 -28 -71 -67
-105 -67 -42 0 -115 47 -130 83 -29 69 0 142 65 167 35 13 83 13 91 0 14 -23
23 -7 27 48 3 51 10 66 51 120 55 71 57 72 111 84 138 31 146 31 146 13z
m2440 -26 c0 -5 -4 -9 -10 -9 -5 0 -10 7 -10 16 0 8 5 12 10 9 6 -3 10 -10 10
-16z m-782 -8 c35 -11 78 -31 97 -45 38 -29 66 -35 39 -8 -17 16 -16 17 25 20
24 2 49 -2 54 -7 18 -18 46 -13 41 7 -2 9 0 24 5 32 8 12 12 12 29 -3 14 -13
20 -32 20 -65 1 -26 6 -48 12 -50 12 -4 29 -41 36 -77 2 -11 9 -22 14 -23 16
-6 51 -45 45 -50 -11 -12 -193 -25 -357 -27 l-176 -1 -59 -49 c-99 -83 -124
-116 -118 -150 11 -61 23 -360 15 -363 -5 -2 -7 -22 -5 -45 3 -23 10 -96 16
-162 6 -66 15 -125 20 -132 7 -7 6 -14 -1 -18 -6 -4 -8 -14 -5 -24 4 -9 9 -27
11 -41 2 -14 6 -39 9 -57 3 -17 1 -34 -5 -38 -5 -3 -10 -1 -10 6 0 8 -4 8 -15
-1 -8 -7 -15 -21 -15 -31 0 -27 -76 -28 -83 -2 -2 10 -4 3 -4 -15 0 -62 -22
-57 -30 7 -4 28 -2 41 6 41 7 0 10 4 7 9 -8 12 32 56 42 46 4 -4 1 -10 -5 -12
-23 -8 -14 -33 12 -33 14 0 25 5 25 10 0 6 7 10 15 10 10 0 15 10 15 30 0 26
-5 31 -30 37 -25 4 -30 10 -30 33 0 15 -9 39 -21 54 l-21 27 25 -6 c24 -6 25
-6 17 37 -4 24 -11 90 -15 148 -3 57 -7 107 -7 110 -2 25 4 40 17 40 8 0 15 5
15 11 0 7 -10 9 -25 7 -30 -6 -35 18 -5 27 21 7 24 24 21 140 -2 54 -23 133
-42 160 -4 6 -10 29 -14 53 -12 73 -55 137 -55 82 0 -11 5 -20 10 -20 6 0 10
-7 10 -16 0 -14 -2 -14 -16 1 -19 18 -11 85 9 85 7 0 18 4 26 9 13 8 13 12 1
26 -13 15 -12 20 9 36 18 15 27 16 43 8 16 -8 17 -13 7 -25 -10 -12 -10 -15 2
-12 26 6 37 24 44 77 6 43 14 59 49 93 32 33 160 106 186 108 3 0 33 -9 68
-19z m-1638 -10 c5 -11 10 -30 10 -42 0 -21 0 -21 -20 3 -14 18 -26 24 -44 21
-13 -3 -26 -1 -30 5 -3 5 5 7 19 4 17 -3 27 1 31 12 8 21 21 20 34 -3z m-105
-11 c3 -5 -1 -10 -10 -10 -9 0 -13 5 -10 10 3 6 8 10 10 10 2 0 7 -4 10 -10z
m222 -2 c4 -7 8 -17 8 -22 0 -5 6 -11 13 -13 6 -3 12 0 12 6 0 6 7 11 15 11
28 0 15 -18 -17 -25 -18 -4 -41 -14 -50 -22 -9 -8 -23 -13 -30 -11 -8 3 -5 10
10 23 12 11 22 25 22 32 0 20 -29 3 -36 -20 -8 -29 -34 -57 -51 -57 -30 0 -17
19 72 100 14 13 23 12 32 -2z m659 -110 c-7 -122 -25 -198 -53 -230 -11 -12
-14 -29 -10 -55 6 -35 5 -36 -8 -19 -17 22 -19 54 -6 75 6 9 5 21 -2 33 -9 14
-9 23 1 38 7 12 8 20 2 20 -13 0 -13 47 0 55 6 3 10 20 10 37 0 17 3 28 7 25
3 -4 5 -32 4 -62 -1 -35 2 -55 9 -55 7 0 11 23 10 68 -1 37 3 81 10 97 6 17
14 45 17 63 12 68 16 27 9 -90z m1384 -38 c0 -5 -9 -10 -20 -10 -11 0 -20 5
-20 10 0 6 9 10 20 10 11 0 20 -4 20 -10z m257 -12 c-3 -8 -6 -5 -6 6 -1 11 2
17 5 13 3 -3 4 -12 1 -19z m-2410 -30 c-3 -7 -5 -2 -5 12 0 14 2 19 5 13 2 -7
2 -19 0 -25z m2168 -35 c25 -31 25 -33 7 -33 -11 0 -30 12 -41 26 -12 15 -21
21 -21 14 0 -9 -6 -7 -20 5 -29 26 -25 33 14 26 21 -4 44 -18 61 -38z m-518
-143 c10 0 24 5 30 11 9 9 19 9 40 1 15 -6 44 -11 63 -11 19 0 45 0 57 -1 l23
0 -20 -50 c-11 -28 -20 -60 -20 -70 0 -22 20 -26 37 -9 17 17 30 -78 14 -103
-17 -28 -13 -75 8 -90 17 -12 18 -19 10 -58 -24 -115 -24 -120 3 -120 23 0 24
-2 23 -70 -1 -40 -6 -75 -13 -82 -14 -14 -16 -118 -2 -118 20 0 9 -60 -19
-108 -21 -36 -29 -62 -29 -95 1 -35 -5 -54 -26 -82 -35 -46 -34 -102 2 -97 23
3 32 -21 11 -33 -5 -4 -14 -18 -19 -31 -20 -53 -30 -22 -30 95 0 65 -3 139 -6
165 -6 42 -5 46 15 46 11 0 21 6 21 13 0 6 14 26 30 44 23 25 30 41 30 72 0
60 -28 49 -70 -27 -17 -30 -26 -39 -32 -29 -4 8 -8 85 -10 172 -2 120 0 159
10 162 6 3 12 9 12 15 0 5 9 21 20 35 11 15 20 41 20 61 l0 36 -20 -22 c-11
-12 -20 -25 -20 -31 0 -5 -7 -11 -15 -15 -10 -3 -15 -20 -16 -48 -1 -71 -15
-16 -28 107 -13 125 -14 136 -23 150 -3 6 -14 47 -24 93 -11 45 -22 82 -26 82
-5 0 -8 7 -8 16 0 11 -6 15 -19 11 -14 -3 -20 2 -24 21 -5 24 -4 25 8 9 7 -9
21 -17 32 -17z m278 -18 c5 0 11 -5 13 -11 2 -6 -3 -8 -12 -5 -12 4 -16 0 -17
-17 -1 -21 -2 -21 -6 -4 -3 11 -9 24 -14 30 -15 16 -10 26 9 16 9 -5 21 -9 27
-9z m-715 -31 c0 -9 4 -21 10 -27 10 -10 18 -58 25 -141 1 -23 6 -46 9 -52 4
-5 2 -12 -3 -15 -11 -7 -21 28 -21 75 0 20 -6 52 -14 70 -18 46 -29 122 -16
114 5 -3 10 -14 10 -24z m800 -1 c11 -11 20 -24 20 -29 0 -5 7 -14 15 -21 8
-7 15 -18 15 -24 0 -6 -20 11 -45 37 -25 27 -45 51 -45 53 0 11 22 2 40 -16z
m-1370 -47 c-4 -21 -11 -46 -15 -55 -3 -9 -2 -25 4 -36 11 -21 5 -52 -10 -52
-14 0 -11 164 3 178 19 19 26 5 18 -35z m1313 4 c3 -8 1 -20 -4 -28 -6 -10 -9
-7 -9 14 0 29 5 35 13 14z m-1381 -26 c-6 -3 -12 -27 -15 -51 l-4 -45 -1 51
c-2 52 4 68 20 57 7 -3 6 -8 0 -12z m1381 -46 c-3 -9 -8 -14 -10 -11 -3 3 -2
9 2 15 9 16 15 13 8 -4z m-1705 -20 c15 -14 21 -25 13 -25 -17 0 -62 36 -54
44 9 9 12 8 41 -19z m509 -7 c-3 -8 -6 -5 -6 6 -1 11 2 17 5 13 3 -3 4 -12 1
-19z m3 -40 c0 -16 -3 -19 -11 -11 -6 6 -8 16 -5 22 11 17 16 13 16 -11z
m-213 -20 c-3 -7 -5 -2 -5 12 0 14 2 19 5 13 2 -7 2 -19 0 -25z m658 -38 c3
-6 -5 -10 -19 -10 -19 0 -26 5 -26 20 0 17 3 19 19 10 11 -5 23 -15 26 -20z
m-962 -4 c41 -31 117 -38 142 -13 9 9 26 17 38 17 18 0 16 -3 -10 -16 -19 -10
-33 -24 -33 -35 0 -15 -4 -16 -31 -9 -18 6 -38 6 -48 1 -30 -16 -125 38 -114
65 7 20 20 18 56 -10z m341 -11 c-6 -16 -34 -21 -34 -7 0 13 11 22 26 22 8 0
11 -6 8 -15z m141 -12 c3 -16 10 -42 16 -59 10 -33 3 -68 -12 -58 -5 3 -6 16
-3 28 3 15 -1 29 -11 40 -9 9 -14 24 -11 33 4 8 1 22 -5 29 -9 11 -8 14 5 14
9 0 18 -11 21 -27z m95 -8 c0 -13 7 -26 16 -29 13 -5 14 -9 4 -22 -11 -13 -15
-11 -31 13 -23 35 -26 75 -4 67 8 -4 15 -16 15 -29z m440 -16 c0 -18 -4 -28
-10 -24 -5 3 -10 20 -10 36 0 18 4 28 10 24 6 -3 10 -20 10 -36z m-489 6 c5 4
6 -1 3 -9 -9 -24 -24 -19 -23 7 0 12 3 16 6 9 2 -6 9 -10 14 -7z m-193 -35 c0
-22 -4 -40 -9 -40 -5 0 -9 18 -9 40 0 22 4 40 9 40 6 0 9 -18 9 -40z m901 -23
c1 -16 -3 -26 -9 -22 -5 3 -10 25 -9 48 0 33 2 38 9 22 5 -11 9 -33 9 -48z
m-1245 37 c18 -7 22 -24 5 -24 -6 0 -17 7 -25 15 -16 16 -7 19 20 9z m1340
-26 c9 -12 16 -33 16 -45 0 -13 5 -23 10 -23 6 0 10 -12 10 -26 0 -37 -17 -20
-25 25 -3 21 -15 48 -26 59 -21 23 -24 32 -10 32 6 0 17 -10 25 -22z m-1181
-5 c-7 -2 -19 -2 -25 0 -7 3 -2 5 12 5 14 0 19 -2 13 -5z m-133 -38 c0 -10
-10 -15 -30 -15 -29 0 -38 9 -23 23 13 13 53 7 53 -8z m442 -46 c2 -33 9 -64
15 -67 6 -4 13 -27 17 -52 4 -36 4 -39 -4 -16 -5 16 -18 37 -29 48 -17 15 -21
31 -21 83 0 82 16 85 22 4z m-292 38 c0 -9 -11 -12 -35 -9 -19 2 -35 8 -35 13
0 5 16 9 35 9 22 0 35 -5 35 -13z m448 -61 c-3 -34 -18 -52 -18 -21 0 8 -7 15
-15 15 -8 0 -15 5 -15 10 0 6 6 9 13 8 7 -2 13 10 15 27 5 43 23 8 20 -39z
m-600 12 c-3 -7 -18 -15 -35 -19 -26 -5 -30 -3 -25 13 3 12 14 18 34 18 19 0
28 -4 26 -12z m119 6 c12 -3 24 -12 27 -20 4 -11 -1 -13 -22 -8 -52 11 -62 15
-62 25 0 10 24 12 57 3z m290 -94 c1 -95 1 -95 -13 -51 -7 24 -20 52 -29 61
-8 9 -15 33 -15 54 0 35 2 37 28 34 l27 -3 2 -95z m923 29 c0 -31 19 -41 21
-11 0 10 7 3 15 -17 11 -24 12 -37 5 -44 -14 -14 -14 -60 0 -74 8 -8 12 -112
13 -355 1 -298 -1 -354 -17 -428 -10 -47 -20 -92 -21 -100 -6 -40 -37 -90 -56
-90 -11 0 -20 7 -20 15 0 8 -8 15 -19 15 -16 0 -18 8 -19 54 0 30 -5 63 -11
75 -6 11 -13 45 -15 75 -2 30 -7 59 -10 64 -3 6 -8 27 -11 48 -12 93 -17 130
-22 147 -3 12 1 17 16 17 15 0 20 8 23 33 2 17 8 31 13 29 6 -2 8 -11 5 -20
-25 -83 29 -452 66 -452 15 0 33 31 40 66 3 21 10 44 14 49 5 6 11 49 15 97 6
73 5 92 -9 113 -18 27 -22 105 -5 105 30 0 41 30 37 110 -2 44 -6 80 -9 80 -3
0 -6 19 -7 43 -3 93 -15 197 -23 203 -5 3 -9 -5 -9 -17 0 -15 -3 -20 -10 -13
-6 6 -6 23 1 49 11 41 4 136 -11 145 -5 3 -11 19 -15 35 l-6 30 20 -24 c12
-13 21 -36 21 -52z m-1005 51 c3 -5 -1 -10 -9 -10 -9 0 -16 5 -16 10 0 6 4 10
9 10 6 0 13 -4 16 -10z m648 -20 c-3 -11 -9 -20 -14 -20 -14 0 -11 28 4 33 6
3 13 6 14 6 0 1 -1 -8 -4 -19z m-206 -12 c-3 -8 -6 -5 -6 6 -1 11 2 17 5 13 3
-3 4 -12 1 -19z m-613 -28 c-22 -20 -94 -17 -94 5 0 9 13 11 45 7 31 -3 45 -1
45 7 0 7 5 9 11 5 7 -4 5 -12 -7 -24z m-165 -5 c-3 -3 -20 -8 -37 -11 -27 -5
-31 -4 -26 9 6 18 44 27 58 15 5 -4 7 -10 5 -13z m1009 -14 c3 -8 -1 -12 -9
-9 -7 2 -15 10 -17 17 -3 8 1 12 9 9 7 -2 15 -10 17 -17z m-433 -94 c-9 -32
-14 -65 -11 -73 3 -8 1 -14 -4 -14 -6 0 -10 -6 -10 -14 0 -8 -5 -18 -11 -22
-15 -9 -1 95 17 123 8 12 14 42 15 65 0 39 1 41 10 18 8 -18 6 -41 -6 -83z
m732 97 c-3 -3 -12 -4 -19 -1 -8 3 -5 6 6 6 11 1 17 -2 13 -5z m-1152 -44
c-10 -11 -28 -20 -39 -19 -18 0 -16 2 7 11 15 5 27 14 27 19 0 5 5 9 12 9 6 0
3 -9 -7 -20z m565 0 c0 -10 -9 -24 -20 -30 -16 -9 -20 -8 -20 5 0 8 5 15 10
15 6 0 9 3 9 8 -3 14 1 22 11 22 6 0 10 -9 10 -20z m-858 -42 c-13 -13 -26 8
-17 30 6 16 7 16 17 -1 7 -13 7 -22 0 -29z m938 32 c0 -5 -4 -10 -9 -10 -6 0
-13 5 -16 10 -3 6 1 10 9 10 9 0 16 -4 16 -10z m187 -52 c-3 -8 -6 -5 -6 6 -1
11 2 17 5 13 3 -3 4 -12 1 -19z m-942 -25 c73 -22 75 -24 20 -17 -27 3 -51 10
-53 15 -2 5 -14 9 -27 9 -13 0 -27 5 -31 11 -4 8 1 9 17 4 13 -4 47 -14 74
-22z m-50 -22 c3 -6 26 -13 50 -17 25 -3 45 -10 45 -16 0 -5 -16 -6 -37 -2
-43 7 -103 30 -103 38 0 10 38 7 45 -3z m995 -68 c0 -76 -11 -115 -27 -100 -4
4 -2 17 5 27 7 11 12 49 12 85 0 36 2 65 5 65 3 0 5 -35 5 -77z m-650 21 c0
-8 -4 -12 -10 -9 -5 3 -10 10 -10 16 0 5 5 9 10 9 6 0 10 -7 10 -16z m535 -4
c3 -5 1 -10 -4 -10 -6 0 -11 5 -11 10 0 6 2 10 4 10 3 0 8 -4 11 -10z m53 -77
c-2 -34 -8 -58 -15 -61 -7 -2 -13 3 -13 12 0 9 4 16 10 16 6 0 7 18 3 45 -4
32 -2 45 6 45 9 0 12 -17 9 -57z m-411 -25 c-3 -8 -6 -5 -6 6 -1 11 2 17 5 13
3 -3 4 -12 1 -19z m828 2 c0 -22 -29 -18 -33 3 -3 14 1 18 15 15 10 -2 18 -10
18 -18z m-945 -45 c0 -14 -2 -25 -4 -25 -2 0 -6 11 -8 25 -3 14 -1 25 3 25 5
0 9 -11 9 -25z m500 -17 c0 -4 -7 -8 -15 -8 -8 0 -15 4 -15 9 0 5 -3 18 -7 28
-6 17 -5 17 15 -1 12 -11 22 -23 22 -28z m-401 10 c-9 -16 -14 -19 -17 -9 -2
7 2 17 9 22 20 13 21 11 8 -13z m859 -20 c-3 -32 -28 -53 -28 -24 0 19 -46 22
-53 4 -4 -8 -6 -7 -6 3 -1 22 31 49 36 32 6 -18 23 -16 23 2 0 8 7 15 16 15
11 0 14 -8 12 -32z m-1144 -34 c4 -13 12 -24 20 -24 7 0 21 -9 31 -20 10 -11
24 -20 32 -20 14 0 18 -26 5 -33 -4 -3 -31 -1 -61 5 -53 9 -73 6 -55 -12 14
-14 120 -28 138 -18 10 6 16 5 16 -2 0 -6 16 -18 35 -27 19 -9 32 -20 29 -25
-3 -4 6 -8 20 -8 23 0 26 -4 26 -35 0 -40 20 -47 43 -15 13 18 15 19 21 5 9
-25 7 -42 -4 -25 -5 8 -12 11 -16 7 -4 -4 -2 -13 4 -19 7 -7 12 -28 12 -47 0
-44 25 -74 50 -61 24 13 51 -16 29 -32 -11 -7 -9 -9 9 -5 16 4 22 0 23 -11 0
-11 2 -12 6 -4 2 7 -5 28 -16 48 -21 36 -28 70 -12 60 5 -3 14 1 21 9 18 22
30 18 30 -9 0 -13 7 -29 15 -36 20 -16 19 -34 -1 -26 -13 5 -14 1 -9 -24 9
-39 -14 -49 -61 -27 -25 13 -32 21 -27 34 6 16 5 16 -9 5 -14 -12 -21 -9 -50
18 -37 35 -153 94 -168 85 -5 -3 -7 1 -4 9 3 9 -5 21 -23 32 -53 34 -163 138
-163 154 0 6 -11 10 -24 10 -13 0 -26 7 -29 14 -4 11 -1 13 11 9 14 -6 15 -5
2 9 -11 11 -17 13 -22 4 -6 -8 -11 -7 -17 3 -7 11 -3 18 16 28 14 7 31 13 38
13 6 0 22 9 34 19 27 24 47 18 55 -15z m199 -5 c-13 -22 -19 -26 -21 -14 -4
17 15 45 30 45 5 0 1 -14 -9 -31z m36 -31 c-11 -19 -14 -20 -17 -6 -2 10 3 24
10 32 18 19 22 2 7 -26z m691 -23 c0 -19 -4 -35 -10 -35 -5 0 -10 16 -10 35 0
19 5 35 10 35 6 0 10 -16 10 -35z m-630 16 c0 -12 -20 -25 -27 -18 -7 7 6 27
18 27 5 0 9 -4 9 -9z m200 -31 c0 -5 -7 -10 -15 -10 -8 0 -15 5 -15 10 0 6 7
10 15 10 8 0 15 -4 15 -10z m-66 -25 c-4 -8 -10 -15 -15 -15 -5 0 -9 7 -9 15
0 8 7 15 15 15 9 0 12 -6 9 -15z m1012 -32 c-11 -11 -17 4 -9 23 7 18 8 18 11
1 2 -10 1 -21 -2 -24z m-1206 7 c0 -11 -7 -20 -15 -20 -15 0 -21 21 -8 33 12
13 23 7 23 -13z m50 11 c0 -5 -7 -14 -15 -21 -12 -10 -15 -10 -15 2 0 8 3 18
7 21 9 10 23 9 23 -2z m360 -11 c0 -5 -2 -10 -4 -10 -3 0 -8 5 -11 10 -3 6 -1
10 4 10 6 0 11 -4 11 -10z m-225 -50 c37 0 44 3 48 23 2 12 4 3 4 -21 1 -36
-2 -42 -16 -36 -39 16 -80 21 -90 11 -8 -8 -11 -6 -11 6 0 9 -6 17 -14 17 -8
0 -17 7 -20 16 -4 12 -1 14 14 9 15 -5 20 -2 21 12 0 12 4 9 11 -9 8 -25 15
-28 53 -28z m9 35 c3 -8 1 -15 -4 -15 -6 0 -10 7 -10 15 0 8 2 15 4 15 2 0 6
-7 10 -15z m666 -91 c0 -20 -4 -33 -10 -29 -5 3 -7 12 -4 19 3 8 1 17 -5 21
-16 9 -13 25 4 25 11 0 15 -11 15 -36z m-240 -5 c0 -6 -6 -9 -14 -6 -9 4 -22
-5 -32 -21 l-17 -26 -10 25 -10 24 -7 -25 c-5 -14 -8 -39 -9 -57 -1 -21 -12
-43 -32 -65 -18 -18 -28 -27 -24 -19 4 7 2 17 -5 21 -11 7 -11 17 0 54 15 53
47 92 81 99 46 8 79 7 79 -4z m202 -41 c-7 -7 -12 -20 -12 -30 0 -11 -5 -15
-14 -12 -11 4 -11 13 -3 45 9 37 11 39 25 25 13 -12 14 -18 4 -28z m64 -31 c6
-17 -13 -70 -24 -63 -11 7 -2 76 9 76 5 0 12 -6 15 -13z m229 -104 c-9 -39
-25 -16 -25 37 0 30 5 50 13 53 14 4 22 -52 12 -90z m-695 38 c-5 -11 -15 -21
-20 -23 -18 -6 0 -37 23 -40 15 -2 21 -9 19 -20 -2 -13 4 -18 22 -18 18 0 24
4 20 14 -5 14 23 56 38 56 5 0 8 -7 8 -15 0 -8 8 -15 18 -15 10 0 23 -5 28
-10 16 -16 89 -1 126 27 l33 24 3 -27 c3 -19 -2 -32 -15 -41 -10 -7 -24 -17
-31 -23 -10 -9 -109 -40 -127 -40 -3 0 -5 7 -5 15 0 11 -12 13 -62 8 -71 -6
-77 -8 -60 -25 7 -7 12 -22 12 -35 0 -16 7 -24 25 -29 14 -3 25 -10 25 -15 0
-32 -77 39 -86 79 -12 55 -14 59 -25 39 -12 -20 -3 -77 12 -77 5 0 9 -7 9 -15
0 -12 -6 -12 -37 5 -21 11 -43 20 -50 20 -31 0 -92 52 -93 78 0 6 -4 12 -10
12 -20 0 -9 25 15 37 25 11 25 10 25 -33 0 -32 4 -44 14 -44 18 0 25 22 28 78
2 50 6 55 33 35 14 -11 16 -17 8 -20 -16 -6 -17 -53 -3 -53 6 0 17 6 24 12 11
11 11 15 -1 24 -13 9 -10 15 17 42 36 36 56 43 40 13z m-414 -16 c3 -14 3 -33
-1 -42 -6 -17 -7 -17 -21 1 -19 26 -18 66 1 66 8 0 17 -11 21 -25z m-96 -24
c0 -29 -14 -42 -37 -34 -18 6 -16 33 2 33 8 0 15 7 15 15 0 8 5 15 10 15 6 0
10 -13 10 -29z m1118 -20 c2 -18 -3 -37 -12 -47 -14 -14 -14 -18 0 -45 16 -32
16 -74 -1 -74 -5 0 -11 17 -13 37 -2 20 -10 42 -18 48 -15 13 -18 40 -8 89 5
24 11 30 28 27 15 -2 22 -11 24 -35z m-186 -31 c-6 -41 -12 -38 -12 6 0 19 4
33 8 30 5 -3 7 -19 4 -36z m108 -122 c0 -42 -10 -78 -21 -78 -12 0 -11 37 1
45 5 3 7 19 3 35 -3 19 -1 30 6 30 6 0 11 -15 11 -32z m-1057 -25 c3 -24 1
-43 -4 -43 -5 0 -9 21 -9 47 0 56 5 54 13 -4z m857 45 c1 -2 3 -28 6 -58 9
-98 45 -287 58 -308 5 -9 -22 -12 -121 -12 -70 0 -145 -4 -166 -9 -43 -10 -55
-1 -26 20 35 25 82 143 94 234 10 76 24 104 54 111 14 3 33 9 41 14 14 8 59
14 60 8z m347 -55 c-3 -3 -11 -2 -17 2 -9 6 -9 10 1 16 14 8 27 -7 16 -18z
m-1163 -115 c7 -5 5 -8 -6 -8 -14 0 -18 8 -17 33 2 27 2 28 6 7 3 -14 10 -28
17 -32z m1156 13 c0 -22 -4 -42 -9 -45 -12 -8 -23 41 -16 65 11 33 25 21 25
-20z m-1070 7 c-1 -20 -29 -52 -37 -43 -5 4 -3 10 3 12 7 2 10 13 7 23 -4 14
0 20 11 20 9 0 16 -6 16 -12z m787 -60 c-3 -7 -5 -2 -5 12 0 14 2 19 5 13 2
-7 2 -19 0 -25z m-830 -45 c-5 -12 -14 -20 -20 -16 -5 3 -4 8 3 13 8 5 7 11
-4 23 -25 25 -19 40 8 20 19 -15 22 -22 13 -40z m866 -53 c4 -25 50 -113 71
-137 14 -16 26 -21 43 -17 18 5 22 3 17 -10 -3 -9 -10 -16 -15 -16 -5 0 -9 -7
-9 -15 0 -8 -13 -21 -29 -29 -26 -14 -30 -14 -43 2 -21 24 -48 82 -48 103 0 9
6 19 13 22 6 2 -13 3 -43 1 -49 -3 -51 -2 -17 5 54 12 59 19 47 80 -12 65 -12
97 1 56 5 -16 10 -37 12 -45z m1245 -35 c3 -3 -53 -4 -124 -3 -104 1 -116 3
-64 8 71 6 179 4 188 -5z m302 -16 c-36 -4 -72 -10 -80 -12 -8 -2 -46 2 -85 9
l-70 12 150 0 c126 0 140 -2 85 -9z m-1390 -4 c0 -9 -34 -59 -45 -67 -5 -4
-14 -8 -20 -8 -5 0 -4 4 4 9 12 8 12 13 -2 35 -14 20 -14 24 -3 20 8 -3 23 -1
33 5 20 12 33 14 33 6z m535 -55 c-3 -5 -24 -10 -46 -10 -21 0 -39 5 -39 10 0
6 21 10 46 10 27 0 43 -4 39 -10z"/>
<path d="M3057 5955 c-4 -8 -2 -17 3 -20 6 -4 10 3 10 14 0 25 -6 27 -13 6z"/>
<path d="M2295 5300 c3 -5 8 -10 11 -10 2 0 4 5 4 10 0 6 -5 10 -11 10 -5 0
-7 -4 -4 -10z"/>
<path d="M1865 5260 c-3 -5 -1 -10 4 -10 6 0 11 5 11 10 0 6 -2 10 -4 10 -3 0
-8 -4 -11 -10z"/>
<path d="M2402 5190 c-7 -11 -19 -20 -27 -20 -8 0 -15 -4 -15 -9 0 -5 -8 -12
-17 -14 -10 -2 0 -4 21 -4 22 0 42 -5 44 -11 5 -17 32 -15 32 3 0 8 -4 15 -10
15 -5 0 -7 6 -4 14 3 8 2 22 -3 30 -7 13 -10 13 -21 -4z"/>
<path d="M4480 4531 c0 -6 4 -12 8 -15 5 -3 9 1 9 9 0 8 -4 15 -9 15 -4 0 -8
-4 -8 -9z"/>
<path d="M4516 4507 c3 -10 9 -15 12 -12 3 3 0 11 -7 18 -10 9 -11 8 -5 -6z"/>
<path d="M4498 4449 c-17 -18 -17 -19 2 -19 13 0 20 7 20 20 0 24 0 24 -22 -1z"/>
<path d="M4470 4410 c0 -5 5 -10 10 -10 6 0 10 5 10 10 0 6 -4 10 -10 10 -5 0
-10 -4 -10 -10z"/>
<path d="M4472 4336 c7 -8 15 -12 17 -11 5 6 -10 25 -20 25 -5 0 -4 -6 3 -14z"/>
<path d="M1630 4010 c0 -5 5 -10 10 -10 6 0 10 5 10 10 0 6 -4 10 -10 10 -5 0
-10 -4 -10 -10z"/>
<path d="M2882 3883 c-9 -4 -8 -9 6 -21 11 -10 22 -27 26 -39 4 -13 11 -23 16
-23 13 0 41 -56 32 -65 -4 -4 3 -4 15 -1 15 5 28 1 42 -13 10 -10 17 -22 14
-24 -2 -3 5 -11 17 -17 18 -10 25 -9 39 5 15 16 12 21 -44 71 -107 98 -150
131 -163 127z"/>
<path d="M2730 3310 c-22 -13 -21 -47 1 -53 16 -4 19 1 19 29 0 38 1 37 -20
24z"/>
<path d="M3957 3213 c-12 -12 -7 -43 6 -43 14 0 47 31 47 43 0 9 -45 9 -53 0z"/>
<path d="M2756 3203 c5 -5 12 -12 16 -18 4 -6 8 -2 8 8 0 9 -7 17 -17 17 -9 0
-12 -3 -7 -7z"/>
<path d="M2790 3155 c7 -9 15 -13 17 -11 7 7 -7 26 -19 26 -6 0 -6 -6 2 -15z"/>
<path d="M2935 2990 c11 -5 27 -9 35 -9 9 0 8 4 -5 9 -11 5 -27 9 -35 9 -9 0
-8 -4 5 -9z"/>
<path d="M2430 3860 c0 -5 5 -10 11 -10 5 0 7 5 4 10 -3 6 -8 10 -11 10 -2 0
-4 -4 -4 -10z"/>
<path d="M2192 3808 c3 -7 12 -14 21 -16 12 -2 15 1 11 12 -7 19 -38 22 -32 4z"/>
<path d="M4177 3860 c-16 -19 -16 -20 13 -20 33 0 50 18 29 31 -20 12 -22 11
-42 -11z"/>
<path d="M2001 3614 c0 -11 3 -14 6 -6 3 7 2 16 -1 19 -3 4 -6 -2 -5 -13z"/>
<path d="M1888 3523 c7 -3 16 -2 19 1 4 3 -2 6 -13 5 -11 0 -14 -3 -6 -6z"/>
<path d="M1861 3474 c0 -11 3 -14 6 -6 3 7 2 16 -1 19 -3 4 -6 -2 -5 -13z"/>
<path d="M1890 3330 c0 -5 7 -10 16 -10 8 0 12 5 9 10 -3 6 -10 10 -16 10 -5
0 -9 -4 -9 -10z"/>
<path d="M1867 3284 c-8 -8 1 -24 14 -24 5 0 9 7 9 15 0 15 -12 20 -23 9z"/>
<path d="M1706 3048 c-42 -48 -59 -88 -38 -88 16 0 72 53 72 69 0 9 7 26 15
38 32 45 -5 31 -49 -19z"/>
<path d="M1777 3031 c-14 -16 -23 -32 -19 -35 6 -7 62 43 62 56 0 16 -17 7
-43 -21z"/>
<path d="M2165 3010 c3 -5 8 -10 11 -10 2 0 4 5 4 10 0 6 -5 10 -11 10 -5 0
-7 -4 -4 -10z"/>
<path d="M1470 2040 c0 -11 2 -20 4 -20 2 0 6 9 9 20 3 11 1 20 -4 20 -5 0 -9
-9 -9 -20z"/>
<path d="M1570 1989 c0 -5 5 -7 10 -4 6 3 10 8 10 11 0 2 -4 4 -10 4 -5 0 -10
-5 -10 -11z"/>
<path d="M2993 2283 c-10 -16 -20 -30 -24 -33 -3 -3 -14 -20 -24 -37 -26 -44
-9 -63 26 -31 14 13 42 36 62 52 42 33 45 43 20 62 -27 20 -41 17 -60 -13z"/>
<path d="M2890 2105 c-15 -28 -4 -50 11 -23 5 10 9 21 9 24 -1 4 4 11 12 15
10 7 10 9 -3 9 -9 0 -22 -11 -29 -25z"/>
<path d="M3345 2062 c-6 -4 -16 -19 -22 -34 -12 -27 -12 -27 12 -16 16 7 25
19 25 35 0 25 -1 26 -15 15z"/>
<path d="M3280 1939 c0 -24 4 -38 10 -34 6 3 10 22 10 41 0 19 -4 34 -10 34
-5 0 -10 -18 -10 -41z"/>
<path d="M3361 1864 c-35 -68 -43 -101 -27 -106 10 -3 17 8 46 75 11 26 24 47
29 47 12 0 8 27 -5 40 -6 6 -21 -14 -43 -56z"/>
<path d="M3403 1502 c-30 -62 -44 -132 -25 -132 8 0 62 91 75 128 9 24 2 72
-11 72 -4 0 -22 -30 -39 -68z"/>
<path d="M3085 510 c4 -6 11 -8 16 -5 14 9 11 15 -7 15 -8 0 -12 -5 -9 -10z"/>
<path d="M2680 675 c0 -8 4 -15 10 -15 5 0 7 7 4 15 -4 8 -8 15 -10 15 -2 0
-4 -7 -4 -15z"/>
<path d="M2840 629 c0 -5 5 -7 10 -4 6 3 10 8 10 11 0 2 -4 4 -10 4 -5 0 -10
-5 -10 -11z"/>
<path d="M3126 141 c-10 -15 5 -61 19 -61 7 0 18 -7 25 -15 16 -19 30 -19 30
-1 0 8 -9 18 -20 21 -11 3 -20 14 -20 24 0 23 -26 46 -34 32z"/>
<path d="M3728 6369 c-29 -16 -20 -28 11 -16 17 6 28 15 25 19 -7 10 -15 10
-36 -3z"/>
<path d="M3464 6243 c-12 -2 -30 -13 -40 -24 -16 -18 -16 -19 5 -19 12 0 39
11 59 25 37 25 31 29 -24 18z"/>
<path d="M2783 6076 c3 -8 2 -16 -3 -18 -6 -2 0 -16 11 -33 l20 -30 -7 35 c-4
19 -7 41 -7 48 0 6 -5 12 -10 12 -5 0 -7 -6 -4 -14z"/>
<path d="M4780 2631 c-8 -5 -60 -13 -115 -19 -122 -14 -199 -47 -152 -65 8 -4
8 -8 2 -14 -5 -4 -10 -17 -10 -28 0 -13 -6 -20 -17 -19 -10 1 -18 -4 -18 -10
0 -21 -62 -70 -115 -90 -31 -12 -71 -18 -105 -17 -35 1 -50 -2 -41 -8 9 -6 10
-11 2 -15 -6 -4 -11 -4 -11 -1 0 3 -10 -1 -22 -9 -12 -9 -29 -16 -38 -16 -23
0 -40 -47 -40 -109 -1 -31 -7 -67 -15 -81 -8 -14 -15 -20 -15 -15 -1 6 -10 -8
-20 -30 -11 -22 -15 -44 -11 -48 5 -5 36 -5 70 -1 50 5 66 12 79 31 40 57 68
88 82 91 7 2 28 -5 46 -14 29 -16 39 -16 96 -5 35 7 92 18 128 25 36 7 75 18
88 25 17 9 45 11 98 6 l74 -7 0 226 c0 124 -1 226 -2 226 -2 0 -10 -4 -18 -9z"/>
<path d="M4073 2174 c0 -32 2 -35 10 -17 6 13 6 27 0 38 -7 13 -10 8 -10 -21z"/>
<path d="M1397 1093 c-9 -3 -15 -8 -13 -11 5 -9 196 -3 196 6 0 8 -154 11
-183 5z"/>
<path d="M375 650 c-3 -5 -1 -10 4 -10 6 0 11 5 11 10 0 6 -2 10 -4 10 -3 0
-8 -4 -11 -10z"/>
<path d="M65 620 c3 -5 10 -10 16 -10 5 0 9 5 9 10 0 6 -7 10 -16 10 -8 0 -12
-4 -9 -10z"/>
<path d="M1115 450 c-3 -6 1 -7 9 -4 18 7 21 14 7 14 -6 0 -13 -4 -16 -10z"/>
<path d="M116 175 c4 -8 11 -15 16 -15 6 0 5 6 -2 15 -7 8 -14 15 -16 15 -2 0
-1 -7 2 -15z"/>
<path d="M315 180 c3 -5 8 -10 11 -10 2 0 4 5 4 10 0 6 -5 10 -11 10 -5 0 -7
-4 -4 -10z"/>
<path d="M75 150 c3 -5 8 -10 11 -10 2 0 4 5 4 10 0 6 -5 10 -11 10 -5 0 -7
-4 -4 -10z"/>
<path d="M180 150 c0 -5 5 -10 10 -10 6 0 10 5 10 10 0 6 -4 10 -10 10 -5 0
-10 -4 -10 -10z"/>
<path d="M455 130 c3 -5 8 -10 11 -10 2 0 4 5 4 10 0 6 -5 10 -11 10 -5 0 -7
-4 -4 -10z"/>
<path d="M1000 130 c0 -13 18 -22 24 -11 3 5 -1 11 -9 15 -8 3 -15 1 -15 -4z"/>
<path d="M900 115 c-8 -9 -8 -15 -2 -15 12 0 26 19 19 26 -2 2 -10 -2 -17 -11z"/>
<path d="M838 103 c7 -3 16 -2 19 1 4 3 -2 6 -13 5 -11 0 -14 -3 -6 -6z"/>
<path d="M200 96 c0 -2 8 -10 18 -17 15 -13 16 -12 3 4 -13 16 -21 21 -21 13z"/>
<path d="M540 90 c0 -5 5 -10 10 -10 6 0 10 5 10 10 0 6 -4 10 -10 10 -5 0
-10 -4 -10 -10z"/>
<path d="M60 60 c0 -5 -12 -10 -26 -10 -14 0 -23 -4 -19 -10 3 -6 15 -6 29 0
13 5 27 6 30 3 3 -4 6 1 6 10 0 10 -4 17 -10 17 -5 0 -10 -4 -10 -10z"/>
<path d="M941 24 c0 -11 3 -14 6 -6 3 7 2 16 -1 19 -3 4 -6 -2 -5 -13z"/>
<path d="M1970 15 c0 -9 6 -12 15 -9 8 4 15 7 15 9 0 2 -7 5 -15 9 -9 3 -15 0
-15 -9z"/>
<path d="M1298 13 c7 -3 16 -2 19 1 4 3 -2 6 -13 5 -11 0 -14 -3 -6 -6z"/>
</g>
</svg>
